M48
; DRILL file {KiCad 9.0.1} date 2025-05-27T12:33:09+0200
; FORMAT={-:-/ absolute / inch / decimal}
; #@! TF.CreationDate,2025-05-27T12:33:09+02:00
; #@! TF.GenerationSoftware,Kicad,Pcbnew,9.0.1
; #@! TF.FileFunction,Plated,1,8,PTH
FMAT,2
INCH
; #@! TA.AperFunction,Plated,PTH,ViaDrill
T1C0.0079
; #@! TA.AperFunction,Plated,PTH,ComponentDrill
T2C0.0327
; #@! TA.AperFunction,Plated,PTH,ComponentDrill
T3C0.0331
; #@! TA.AperFunction,Plated,PTH,ComponentDrill
T4C0.0394
; #@! TA.AperFunction,Plated,PTH,ComponentDrill
T5C0.0610
; #@! TA.AperFunction,Plated,PTH,ComponentDrill
T6C0.1063
%
G90
G05
T1
X4.3602Y-1.752
X4.3602Y-1.8701
X4.3602Y-1.9882
X4.3602Y-2.1063
X4.3602Y-2.2244
X4.3602Y-2.3425
X4.3602Y-2.4606
X4.3602Y-2.5787
X4.3602Y-2.6969
X4.3602Y-2.815
X4.3602Y-2.9331
X4.3602Y-3.0512
X4.3602Y-3.1693
X4.3602Y-3.2874
X4.3602Y-3.4055
X4.3602Y-3.5236
X4.3602Y-3.6417
X4.3602Y-3.7598
X4.3602Y-3.878
X4.3602Y-3.9961
X4.3602Y-4.1142
X4.3602Y-4.2323
X4.4104Y-1.9738
X4.4104Y-2.1238
X4.4104Y-2.1738
X4.4104Y-2.3738
X4.4104Y-2.5738
X4.4104Y-2.7238
X4.4104Y-2.7738
X4.4104Y-2.9238
X4.4104Y-2.9738
X4.4104Y-3.1238
X4.4104Y-3.1738
X4.4104Y-3.3738
X4.4104Y-3.4238
X4.4104Y-3.5238
X4.4104Y-3.5738
X4.4104Y-3.7238
X4.4104Y-3.7738
X4.4104Y-3.9238
X4.4252Y-1.6496
X4.4291Y-4.2992
X4.4604Y-2.0238
X4.4604Y-2.0738
X4.4604Y-2.2238
X4.4604Y-2.2738
X4.4604Y-2.4738
X4.4604Y-2.6738
X4.4604Y-2.8238
X4.4604Y-2.8738
X4.4604Y-3.0238
X4.4604Y-3.0738
X4.4604Y-3.2238
X4.4604Y-3.2738
X4.4604Y-3.4238
X4.4604Y-3.4738
X4.4604Y-3.6238
X4.4604Y-3.6738
X4.4604Y-3.8238
X4.4604Y-3.8738
X4.4604Y-3.9238
X4.5104Y-1.9738
X4.5104Y-2.1238
X4.5104Y-2.1738
X4.5104Y-2.3238
X4.5104Y-2.3738
X4.5104Y-2.4238
X4.5104Y-2.4738
X4.5104Y-2.5238
X4.5104Y-2.5738
X4.5104Y-2.6238
X4.5104Y-2.6738
X4.5104Y-2.7238
X4.5104Y-2.7738
X4.5104Y-2.8238
X4.5104Y-2.8738
X4.5104Y-2.9238
X4.5104Y-2.9738
X4.5104Y-3.1238
X4.5104Y-3.1738
X4.5104Y-3.3238
X4.5104Y-3.3738
X4.5104Y-3.4238
X4.5104Y-3.4738
X4.5104Y-3.5238
X4.5104Y-3.6238
X4.5104Y-3.6738
X4.5104Y-3.7738
X4.5104Y-3.8238
X4.5104Y-3.8738
X4.5104Y-3.9238
X4.5354Y-1.6988
X4.5433Y-1.6496
X4.5472Y-4.2992
X4.5604Y-2.0238
X4.5604Y-2.0738
X4.5604Y-2.2236
X4.5604Y-2.2738
X4.5604Y-2.4238
X4.5604Y-2.4738
X4.5604Y-2.6238
X4.5604Y-2.6738
X4.5604Y-2.8238
X4.5604Y-2.8738
X4.5604Y-2.9238
X4.5604Y-2.9738
X4.5604Y-3.0238
X4.5604Y-3.0738
X4.5604Y-3.2238
X4.5604Y-3.2738
X4.5604Y-3.4238
X4.5604Y-3.5738
X4.5604Y-3.6238
X4.5604Y-3.6738
X4.5604Y-3.8238
X4.5604Y-3.8738
X4.5657Y-3.4791
X4.6103Y-3.574
X4.6104Y-1.9738
X4.6104Y-2.0238
X4.6104Y-2.0738
X4.6104Y-2.1238
X4.6104Y-2.1738
X4.6104Y-2.2238
X4.6104Y-2.2738
X4.6104Y-2.3238
X4.6104Y-2.3738
X4.6104Y-2.4238
X4.6104Y-2.4738
X4.6104Y-2.5238
X4.6104Y-2.5738
X4.6104Y-2.6738
X4.6104Y-2.7238
X4.6104Y-2.7738
X4.6104Y-2.8738
X4.6104Y-2.9238
X4.6104Y-2.9738
X4.6104Y-3.0238
X4.6104Y-3.0738
X4.6104Y-3.1238
X4.6104Y-3.1738
X4.6104Y-3.2238
X4.6104Y-3.2738
X4.6104Y-3.3238
X4.6104Y-3.3738
X4.6104Y-3.4738
X4.6104Y-3.5238
X4.6104Y-3.6238
X4.6104Y-3.6738
X4.6104Y-3.7238
X4.6104Y-3.7738
X4.6104Y-3.8738
X4.6104Y-3.9238
X4.6586Y-1.9732
X4.6589Y-3.9238
X4.6604Y-2.0238
X4.6604Y-2.0738
X4.6604Y-2.1238
X4.6604Y-2.1738
X4.6604Y-2.2238
X4.6604Y-2.3738
X4.6604Y-2.5738
X4.6604Y-2.7238
X4.6604Y-2.7738
X4.6604Y-2.8238
X4.6604Y-2.8738
X4.6604Y-2.9238
X4.6604Y-2.9738
X4.6604Y-3.0238
X4.6604Y-3.1738
X4.6604Y-3.2738
X4.6604Y-3.3238
X4.6604Y-3.3738
X4.6604Y-3.4238
X4.6604Y-3.4738
X4.6604Y-3.5238
X4.6604Y-3.5738
X4.6604Y-3.6238
X4.6604Y-3.6738
X4.6604Y-3.8738
X4.6614Y-1.6496
X4.6654Y-4.2992
X4.7104Y-1.9738
X4.7104Y-2.0238
X4.7104Y-2.0738
X4.7104Y-2.2238
X4.7104Y-2.3738
X4.7104Y-2.5238
X4.7104Y-2.5738
X4.7104Y-2.6238
X4.7104Y-2.6738
X4.7104Y-2.8238
X4.7104Y-2.9738
X4.7104Y-3.1238
X4.7104Y-3.2738
X4.7104Y-3.3738
X4.7104Y-3.4238
X4.7104Y-3.5738
X4.7104Y-3.6238
X4.7104Y-3.7238
X4.7104Y-3.7738
X4.7104Y-3.9238
X4.7604Y-1.9738
X4.7604Y-2.0738
X4.7604Y-2.1738
X4.7604Y-2.3238
X4.7604Y-2.4238
X4.7604Y-2.4738
X4.7604Y-2.6238
X4.7604Y-2.7238
X4.7604Y-2.7738
X4.7604Y-2.8738
X4.7604Y-2.9238
X4.7604Y-3.0738
X4.7604Y-3.2238
X4.7604Y-3.3238
X4.7604Y-3.3738
X4.7604Y-3.5238
X4.7604Y-3.6738
X4.7604Y-3.8238
X4.7604Y-3.8738
X4.7604Y-3.9738
X4.8104Y-1.9738
X4.8104Y-2.0238
X4.8104Y-2.0738
X4.8104Y-2.2238
X4.8104Y-2.2738
X4.8104Y-2.3738
X4.8104Y-2.5238
X4.8104Y-2.5738
X4.8104Y-2.6738
X4.8104Y-2.7238
X4.8104Y-2.7738
X4.8104Y-2.8238
X4.8104Y-2.8738
X4.8104Y-2.9238
X4.8104Y-2.9738
X4.8104Y-3.0238
X4.8104Y-3.0738
X4.8104Y-3.1238
X4.8104Y-3.1738
X4.8104Y-3.2238
X4.8104Y-3.2738
X4.8104Y-3.3238
X4.8104Y-3.3738
X4.8104Y-3.4238
X4.8104Y-3.4738
X4.8104Y-3.5238
X4.8104Y-3.5738
X4.8104Y-3.6738
X4.8104Y-3.7238
X4.8104Y-3.7738
X4.8104Y-3.8238
X4.8104Y-3.8738
X4.8104Y-3.9238
X4.8604Y-1.9738
X4.8604Y-2.0238
X4.8604Y-2.0738
X4.8604Y-2.1738
X4.8604Y-2.3238
X4.8604Y-2.4238
X4.8604Y-2.4738
X4.8604Y-2.6738
X4.8604Y-2.7238
X4.8604Y-2.7738
X4.8604Y-2.8238
X4.8604Y-2.8738
X4.8604Y-2.9238
X4.8604Y-2.9738
X4.8604Y-3.0238
X4.8604Y-3.0738
X4.8604Y-3.1238
X4.8604Y-3.1738
X4.8604Y-3.2238
X4.8604Y-3.2738
X4.8604Y-3.3238
X4.8604Y-3.3738
X4.8604Y-3.4238
X4.8604Y-3.4738
X4.8604Y-3.5238
X4.8604Y-3.5738
X4.8604Y-3.6238
X4.8604Y-3.6738
X4.8604Y-3.7238
X4.8604Y-3.7738
X4.8604Y-3.8238
X4.8604Y-3.8738
X4.9087Y-1.9737
X4.9104Y-2.1238
X4.9104Y-2.2238
X4.9104Y-2.2738
X4.9104Y-2.3738
X4.9104Y-2.5238
X4.9104Y-2.5738
X4.9104Y-2.7238
X4.9104Y-2.7738
X4.9104Y-2.8238
X4.9104Y-2.8738
X4.9104Y-2.9738
X4.9104Y-3.1238
X4.9104Y-3.1738
X4.9104Y-3.2738
X4.9104Y-3.4238
X4.9104Y-3.4738
X4.9104Y-3.5738
X4.9104Y-3.6238
X4.9104Y-3.7238
X4.9104Y-3.7738
X4.9104Y-3.9238
X4.9604Y-2.0238
X4.9604Y-2.0738
X4.9604Y-2.1738
X4.9604Y-2.3238
X4.9604Y-2.4738
X4.9604Y-2.6738
X4.9604Y-2.7238
X4.9604Y-2.7738
X4.9604Y-2.9238
X4.9604Y-3.0738
X4.9604Y-3.2238
X4.9604Y-3.3238
X4.9604Y-3.3738
X4.9604Y-3.5238
X4.9604Y-3.6738
X4.9604Y-3.8238
X5.0104Y-1.9738
X5.0104Y-2.0238
X5.0104Y-2.1238
X5.0104Y-2.2238
X5.0104Y-2.2738
X5.0104Y-2.4238
X5.0104Y-2.4738
X5.0104Y-2.6238
X5.0104Y-2.6738
X5.0104Y-2.7738
X5.0104Y-2.8238
X5.0104Y-2.8738
X5.0104Y-3.0238
X5.0104Y-3.0738
X5.0104Y-3.2238
X5.0104Y-3.2738
X5.0104Y-3.4238
X5.0104Y-3.4738
X5.0104Y-3.6238
X5.0104Y-3.6738
X5.0104Y-3.8238
X5.0104Y-3.8738
X5.0104Y-3.9238
X5.0157Y-1.6496
X5.0197Y-4.2992
X5.0604Y-1.9738
X5.0604Y-2.0738
X5.0604Y-2.1238
X5.0604Y-2.1738
X5.0604Y-2.2238
X5.0604Y-2.2738
X5.0604Y-2.3238
X5.0604Y-2.3738
X5.0604Y-2.5738
X5.0604Y-2.7238
X5.0604Y-2.7738
X5.0604Y-2.8238
X5.0604Y-2.8738
X5.0604Y-2.9238
X5.0604Y-2.9738
X5.0604Y-3.1238
X5.0604Y-3.1738
X5.0604Y-3.3238
X5.0604Y-3.3738
X5.0604Y-3.5238
X5.0604Y-3.5738
X5.0604Y-3.7238
X5.0604Y-3.7738
X5.0604Y-3.9238
X5.1104Y-2.5738
X5.1339Y-1.6496
X5.1378Y-4.2992
X5.2165Y-1.9094
X5.2165Y-1.9488
X5.2165Y-2.0669
X5.2165Y-2.1063
X5.252Y-1.6496
X5.2559Y-4.2992
X5.2854Y-2.0079
X5.3051Y-1.9587
X5.3051Y-2.0571
X5.3543Y-1.939
X5.3543Y-2.0768
X5.3701Y-1.6496
X5.374Y-4.2992
X5.3854Y-3.9238
X5.4035Y-1.9587
X5.4035Y-2.0571
X5.4136Y-3.9238
X5.4526Y-3.9238
X5.4804Y-3.9238
X5.4882Y-1.6496
X5.4921Y-1.9094
X5.4921Y-1.9488
X5.4921Y-2.0669
X5.4921Y-2.1063
X5.4921Y-4.2992
X5.6063Y-1.6496
X5.6102Y-4.2992
X5.7244Y-1.6496
X5.7283Y-1.9094
X5.7283Y-1.9488
X5.7283Y-2.0669
X5.7283Y-2.1063
X5.7283Y-4.2992
X5.8169Y-1.9587
X5.8169Y-2.0571
X5.8425Y-1.6496
X5.8465Y-4.2992
X5.8661Y-1.939
X5.8661Y-2.0768
X5.8854Y-3.8238
X5.8854Y-3.8738
X5.9154Y-1.9587
X5.9154Y-2.0571
X5.9154Y-3.8293
X5.9154Y-3.8683
X5.935Y-2.0079
X5.9454Y-3.8238
X5.9454Y-3.8738
X5.9606Y-1.6496
X5.9646Y-4.2992
X6.0039Y-1.9094
X6.0039Y-1.9488
X6.0039Y-2.0669
X6.0039Y-2.1063
X6.0454Y-2.7293
X6.0454Y-2.7683
X6.0704Y-2.7238
X6.0704Y-2.7738
X6.0787Y-1.6496
X6.0827Y-4.2992
X6.0854Y-2.8738
X6.0854Y-2.9238
X6.1154Y-2.8793
X6.1154Y-2.9183
X6.1254Y-3.4238
X6.1254Y-3.4738
X6.1454Y-2.8738
X6.1454Y-2.9238
X6.1554Y-3.4293
X6.1554Y-3.4683
X6.1854Y-3.4238
X6.1854Y-3.4738
X6.2008Y-4.2992
X6.2704Y-2.9738
X6.2704Y-3.0238
X6.2756Y-1.9094
X6.2954Y-2.9793
X6.2954Y-3.0183
X6.315Y-1.8236
X6.315Y-1.8504
X6.315Y-1.8898
X6.3154Y-3.1238
X6.3154Y-3.1738
X6.3189Y-4.2992
X6.3204Y-2.9738
X6.3204Y-3.0238
X6.3304Y-3.7238
X6.3304Y-3.7738
X6.3454Y-3.1293
X6.3454Y-3.1683
X6.3554Y-3.7293
X6.3554Y-3.7683
X6.3754Y-3.1238
X6.3754Y-3.1738
X6.3804Y-3.7238
X6.3804Y-3.7738
X6.4504Y-2.9238
X6.4504Y-2.9738
X6.4754Y-2.9293
X6.4754Y-2.9683
X6.5004Y-2.9238
X6.5004Y-2.9738
X6.5039Y-1.689
X6.5254Y-3.5793
X6.5254Y-3.6183
X6.5512Y-1.8898
X6.5554Y-3.5738
X6.5554Y-3.6238
X6.5787Y-1.748
X6.6254Y-3.6238
X6.6254Y-3.6738
X6.6354Y-3.3238
X6.6354Y-3.3738
X6.6554Y-3.6293
X6.6554Y-3.6683
X6.6634Y-1.811
X6.6654Y-3.3293
X6.6654Y-3.3683
X6.6693Y-1.8701
X6.6854Y-3.6238
X6.6854Y-3.6738
X6.6904Y-3.3738
X6.6904Y-3.4238
X6.6969Y-1.748
X6.7154Y-3.3793
X6.7154Y-3.4183
X6.7454Y-3.3738
X6.7454Y-3.4238
X6.752Y-4.1693
X6.7604Y-3.6738
X6.7604Y-3.7238
X6.7654Y-3.5293
X6.7654Y-3.5683
X6.7854Y-3.6793
X6.7854Y-3.7183
X6.7954Y-3.5238
X6.7954Y-3.5738
X6.815Y-1.748
X6.8268Y-1.9291
X6.8268Y-1.9882
X6.8701Y-4.1693
X6.8804Y-3.6688
X6.8859Y-3.6988
X6.9249Y-3.6988
X6.9304Y-2.1038
X6.9304Y-2.1588
X6.9304Y-3.6688
X6.9331Y-1.748
X6.9354Y-3.4338
X6.9404Y-3.7588
X6.9404Y-3.8088
X6.9459Y-3.4588
X6.9554Y-2.1114
X6.9554Y-2.1504
X6.9654Y-3.765
X6.9654Y-3.8039
X6.9804Y-2.1038
X6.9804Y-2.1588
X6.9849Y-3.4588
X6.9954Y-3.4338
X7.0004Y-2.4788
X7.0004Y-2.5338
X7.0254Y-2.4893
X7.0254Y-2.5283
X7.0554Y-2.4188
X7.0554Y-2.4788
X7.0554Y-2.5338
X7.0604Y-2.9238
X7.0604Y-2.9738
X7.0854Y-2.4293
X7.0854Y-2.4683
X7.0854Y-2.9293
X7.0854Y-2.9683
X7.1154Y-2.4188
X7.1154Y-2.4788
X7.1154Y-2.9238
X7.1154Y-2.9738
X7.1299Y-4.1654
X7.1354Y-1.9938
X7.1354Y-2.0688
X7.1354Y-2.1438
X7.1354Y-2.2188
X7.1354Y-2.2938
X7.1354Y-2.5638
X7.1354Y-2.6388
X7.1354Y-2.7188
X7.1354Y-2.7938
X7.1354Y-2.8688
X7.1404Y-3.1338
X7.1404Y-3.2138
X7.1404Y-3.2888
X7.1404Y-3.3638
X7.1404Y-3.4388
X7.248Y-4.1654
X7.3454Y-1.9988
X7.3454Y-2.0738
X7.3454Y-2.1488
X7.3454Y-2.2188
X7.3454Y-2.2957
X7.3454Y-2.5688
X7.3454Y-2.6438
X7.3454Y-2.7188
X7.3454Y-2.7938
X7.3454Y-2.8638
X7.3454Y-3.1388
X7.3454Y-3.2138
X7.3454Y-3.2888
X7.3454Y-3.3638
X7.3454Y-3.4388
X7.3454Y-3.7088
X7.3454Y-3.7838
X7.3454Y-3.8588
X7.3454Y-3.9338
X7.3454Y-4.0088
X7.3654Y-2.0137
X7.3654Y-2.0527
X7.3654Y-2.0887
X7.3654Y-2.1277
X7.3654Y-2.1637
X7.3654Y-2.2027
X7.3654Y-2.5845
X7.3654Y-2.6235
X7.3654Y-2.6595
X7.3654Y-2.6985
X7.3654Y-2.7345
X7.3654Y-2.7735
X7.3654Y-3.1554
X7.3654Y-3.1944
X7.3654Y-3.2304
X7.3654Y-3.2694
X7.3654Y-3.3054
X7.3654Y-3.3444
X7.3654Y-3.7263
X7.3654Y-3.7653
X7.3654Y-3.8013
X7.3654Y-3.8403
X7.3654Y-3.8763
X7.3654Y-3.9153
X7.3654Y-3.9513
X7.3654Y-3.9903
X7.3661Y-4.1654
T2
X7.5697Y-1.9232
X7.5697Y-2.3681
X7.5697Y-2.4941
X7.5697Y-2.939
X7.5697Y-3.065
X7.5697Y-3.5098
X7.5697Y-3.6358
X7.5697Y-4.0807
T3
X5.265Y-4.0445
X5.265Y-4.1445
X5.315Y-4.0945
X5.365Y-4.0445
X5.365Y-4.1445
X5.5012Y-4.0445
X5.5012Y-4.1445
X5.5512Y-4.0945
X5.6012Y-4.0445
X5.6012Y-4.1445
X5.8161Y-4.0445
X5.8161Y-4.1445
X5.8661Y-4.0945
X5.9161Y-4.0445
X5.9161Y-4.1445
X6.0524Y-4.0445
X6.0524Y-4.1445
X6.1024Y-4.0945
X6.1524Y-4.0445
X6.1524Y-4.1445
X6.3673Y-4.0445
X6.3673Y-4.1445
X6.4173Y-4.0945
X6.4673Y-4.0445
X6.4673Y-4.1445
X6.6035Y-4.0445
X6.6035Y-4.1445
X6.6535Y-4.0945
X6.7035Y-4.0445
X6.7035Y-4.1445
T4
X5.4291Y-1.6929
X5.6654Y-1.6929
X5.9016Y-1.6929
X6.174Y-1.6929
X6.274Y-1.6929
X6.374Y-1.6929
T5
X5.3543Y-1.8669
X5.3543Y-2.1488
X5.8661Y-1.8669
X5.8661Y-2.1488
T6
X4.8386Y-1.7323
X4.8386Y-4.2126
M30
