%TF.GenerationSoftware,KiCad,Pcbnew,9.0.1*%
%TF.CreationDate,2025-05-27T12:33:09+02:00*%
%TF.ProjectId,QBRIQS_FMCP_ARC6-ARF6,51425249-5153-45f4-964d-43505f415243,1.0*%
%TF.SameCoordinates,Original*%
%TF.FileFunction,Drillmap*%
%TF.FilePolarity,Positive*%
%FSLAX45Y45*%
G04 Gerber Fmt 4.5, Leading zero omitted, Abs format (unit mm)*
G04 Created by KiCad (PCBNEW 9.0.1) date 2025-05-27 12:33:09*
%MOMM*%
%LPD*%
G01*
G04 APERTURE LIST*
%ADD10C,0.200000*%
%ADD11C,0.100000*%
%ADD12C,0.127000*%
%ADD13C,0.270000*%
G04 APERTURE END LIST*
D10*
X19490000Y-10670000D02*
X16240000Y-10670000D01*
X11000000Y-10150000D02*
X11000000Y-5200000D01*
X16620000Y-4100000D02*
X16620000Y-4260000D01*
X16140000Y-10770000D02*
X16140000Y-11000000D01*
X16720000Y-4360000D02*
X17700000Y-4360000D01*
X11000000Y-4100000D02*
X16620000Y-4100000D01*
X13840000Y-11000000D02*
X16140000Y-11000000D01*
X13840000Y-11000000D02*
X11000000Y-11000000D01*
X16720000Y-4360000D02*
G75*
G02*
X16620000Y-4260000I0J100000D01*
G01*
X19490000Y-4570000D02*
X19490000Y-10670000D01*
X11000000Y-10150000D02*
X11000000Y-11000000D01*
X11000000Y-5200000D02*
X11000000Y-4100000D01*
X17800000Y-4570000D02*
X19490000Y-4570000D01*
X17700000Y-4360000D02*
X17700000Y-4470000D01*
X17800000Y-4570000D02*
G75*
G02*
X17700000Y-4470000I0J100000D01*
G01*
X16140000Y-10770000D02*
G75*
G02*
X16240000Y-10670000I100000J0D01*
G01*
D11*
X18811500Y-4861500D02*
X18906500Y-4956500D01*
X18906500Y-4861500D02*
X18811500Y-4956500D01*
X18811500Y-5943500D02*
X18906500Y-6038500D01*
X18906500Y-5943500D02*
X18811500Y-6038500D01*
X18811500Y-6311500D02*
X18906500Y-6406500D01*
X18906500Y-6311500D02*
X18811500Y-6406500D01*
X18811500Y-7393500D02*
X18906500Y-7488500D01*
X18906500Y-7393500D02*
X18811500Y-7488500D01*
X18811500Y-7761500D02*
X18906500Y-7856500D01*
X18906500Y-7761500D02*
X18811500Y-7856500D01*
X18811500Y-8843500D02*
X18906500Y-8938500D01*
X18906500Y-8843500D02*
X18811500Y-8938500D01*
X18811500Y-9211500D02*
X18906500Y-9306500D01*
X18906500Y-9211500D02*
X18811500Y-9306500D01*
X18811500Y-10293500D02*
X18906500Y-10388500D01*
X18906500Y-10293500D02*
X18811500Y-10388500D01*
D12*
X12155000Y-10272550D02*
G75*
G02*
X12028000Y-10272550I-63500J0D01*
G01*
X12028000Y-10272550D02*
G75*
G02*
X12155000Y-10272550I63500J0D01*
G01*
X12460000Y-4834450D02*
G75*
G02*
X12333000Y-4834450I-63500J0D01*
G01*
X12333000Y-4834450D02*
G75*
G02*
X12460000Y-4834450I63500J0D01*
G01*
D13*
X17750000Y-4660000D02*
X17750000Y-4930000D01*
X17615000Y-4795000D02*
X17885000Y-4795000D01*
X17750000Y-10315000D02*
X17750000Y-10585000D01*
X17615000Y-10450000D02*
X17885000Y-10450000D01*
D10*
X11250777Y-11321484D02*
X11250777Y-11121484D01*
X11250777Y-11121484D02*
X11298396Y-11121484D01*
X11298396Y-11121484D02*
X11326967Y-11131008D01*
X11326967Y-11131008D02*
X11346015Y-11150055D01*
X11346015Y-11150055D02*
X11355539Y-11169103D01*
X11355539Y-11169103D02*
X11365062Y-11207198D01*
X11365062Y-11207198D02*
X11365062Y-11235769D01*
X11365062Y-11235769D02*
X11355539Y-11273865D01*
X11355539Y-11273865D02*
X11346015Y-11292912D01*
X11346015Y-11292912D02*
X11326967Y-11311960D01*
X11326967Y-11311960D02*
X11298396Y-11321484D01*
X11298396Y-11321484D02*
X11250777Y-11321484D01*
X11450777Y-11321484D02*
X11450777Y-11188150D01*
X11450777Y-11226246D02*
X11460301Y-11207198D01*
X11460301Y-11207198D02*
X11469824Y-11197674D01*
X11469824Y-11197674D02*
X11488872Y-11188150D01*
X11488872Y-11188150D02*
X11507920Y-11188150D01*
X11574586Y-11321484D02*
X11574586Y-11188150D01*
X11574586Y-11121484D02*
X11565062Y-11131008D01*
X11565062Y-11131008D02*
X11574586Y-11140531D01*
X11574586Y-11140531D02*
X11584110Y-11131008D01*
X11584110Y-11131008D02*
X11574586Y-11121484D01*
X11574586Y-11121484D02*
X11574586Y-11140531D01*
X11698396Y-11321484D02*
X11679348Y-11311960D01*
X11679348Y-11311960D02*
X11669824Y-11292912D01*
X11669824Y-11292912D02*
X11669824Y-11121484D01*
X11803158Y-11321484D02*
X11784110Y-11311960D01*
X11784110Y-11311960D02*
X11774586Y-11292912D01*
X11774586Y-11292912D02*
X11774586Y-11121484D01*
X12031729Y-11321484D02*
X12031729Y-11121484D01*
X12031729Y-11121484D02*
X12098396Y-11264341D01*
X12098396Y-11264341D02*
X12165062Y-11121484D01*
X12165062Y-11121484D02*
X12165062Y-11321484D01*
X12346015Y-11321484D02*
X12346015Y-11216722D01*
X12346015Y-11216722D02*
X12336491Y-11197674D01*
X12336491Y-11197674D02*
X12317443Y-11188150D01*
X12317443Y-11188150D02*
X12279348Y-11188150D01*
X12279348Y-11188150D02*
X12260301Y-11197674D01*
X12346015Y-11311960D02*
X12326967Y-11321484D01*
X12326967Y-11321484D02*
X12279348Y-11321484D01*
X12279348Y-11321484D02*
X12260301Y-11311960D01*
X12260301Y-11311960D02*
X12250777Y-11292912D01*
X12250777Y-11292912D02*
X12250777Y-11273865D01*
X12250777Y-11273865D02*
X12260301Y-11254817D01*
X12260301Y-11254817D02*
X12279348Y-11245293D01*
X12279348Y-11245293D02*
X12326967Y-11245293D01*
X12326967Y-11245293D02*
X12346015Y-11235769D01*
X12441253Y-11188150D02*
X12441253Y-11388150D01*
X12441253Y-11197674D02*
X12460301Y-11188150D01*
X12460301Y-11188150D02*
X12498396Y-11188150D01*
X12498396Y-11188150D02*
X12517443Y-11197674D01*
X12517443Y-11197674D02*
X12526967Y-11207198D01*
X12526967Y-11207198D02*
X12536491Y-11226246D01*
X12536491Y-11226246D02*
X12536491Y-11283388D01*
X12536491Y-11283388D02*
X12526967Y-11302436D01*
X12526967Y-11302436D02*
X12517443Y-11311960D01*
X12517443Y-11311960D02*
X12498396Y-11321484D01*
X12498396Y-11321484D02*
X12460301Y-11321484D01*
X12460301Y-11321484D02*
X12441253Y-11311960D01*
X12622205Y-11302436D02*
X12631729Y-11311960D01*
X12631729Y-11311960D02*
X12622205Y-11321484D01*
X12622205Y-11321484D02*
X12612682Y-11311960D01*
X12612682Y-11311960D02*
X12622205Y-11302436D01*
X12622205Y-11302436D02*
X12622205Y-11321484D01*
X12622205Y-11197674D02*
X12631729Y-11207198D01*
X12631729Y-11207198D02*
X12622205Y-11216722D01*
X12622205Y-11216722D02*
X12612682Y-11207198D01*
X12612682Y-11207198D02*
X12622205Y-11197674D01*
X12622205Y-11197674D02*
X12622205Y-11216722D01*
D11*
X10895000Y-11602500D02*
X10990000Y-11697500D01*
X10990000Y-11602500D02*
X10895000Y-11697500D01*
D10*
X11288872Y-11541484D02*
X11307920Y-11541484D01*
X11307920Y-11541484D02*
X11326967Y-11551008D01*
X11326967Y-11551008D02*
X11336491Y-11560531D01*
X11336491Y-11560531D02*
X11346015Y-11579579D01*
X11346015Y-11579579D02*
X11355539Y-11617674D01*
X11355539Y-11617674D02*
X11355539Y-11665293D01*
X11355539Y-11665293D02*
X11346015Y-11703388D01*
X11346015Y-11703388D02*
X11336491Y-11722436D01*
X11336491Y-11722436D02*
X11326967Y-11731960D01*
X11326967Y-11731960D02*
X11307920Y-11741484D01*
X11307920Y-11741484D02*
X11288872Y-11741484D01*
X11288872Y-11741484D02*
X11269824Y-11731960D01*
X11269824Y-11731960D02*
X11260301Y-11722436D01*
X11260301Y-11722436D02*
X11250777Y-11703388D01*
X11250777Y-11703388D02*
X11241253Y-11665293D01*
X11241253Y-11665293D02*
X11241253Y-11617674D01*
X11241253Y-11617674D02*
X11250777Y-11579579D01*
X11250777Y-11579579D02*
X11260301Y-11560531D01*
X11260301Y-11560531D02*
X11269824Y-11551008D01*
X11269824Y-11551008D02*
X11288872Y-11541484D01*
X11441253Y-11722436D02*
X11450777Y-11731960D01*
X11450777Y-11731960D02*
X11441253Y-11741484D01*
X11441253Y-11741484D02*
X11431729Y-11731960D01*
X11431729Y-11731960D02*
X11441253Y-11722436D01*
X11441253Y-11722436D02*
X11441253Y-11741484D01*
X11546015Y-11741484D02*
X11584110Y-11741484D01*
X11584110Y-11741484D02*
X11603158Y-11731960D01*
X11603158Y-11731960D02*
X11612682Y-11722436D01*
X11612682Y-11722436D02*
X11631729Y-11693865D01*
X11631729Y-11693865D02*
X11641253Y-11655769D01*
X11641253Y-11655769D02*
X11641253Y-11579579D01*
X11641253Y-11579579D02*
X11631729Y-11560531D01*
X11631729Y-11560531D02*
X11622205Y-11551008D01*
X11622205Y-11551008D02*
X11603158Y-11541484D01*
X11603158Y-11541484D02*
X11565062Y-11541484D01*
X11565062Y-11541484D02*
X11546015Y-11551008D01*
X11546015Y-11551008D02*
X11536491Y-11560531D01*
X11536491Y-11560531D02*
X11526967Y-11579579D01*
X11526967Y-11579579D02*
X11526967Y-11627198D01*
X11526967Y-11627198D02*
X11536491Y-11646246D01*
X11536491Y-11646246D02*
X11546015Y-11655769D01*
X11546015Y-11655769D02*
X11565062Y-11665293D01*
X11565062Y-11665293D02*
X11603158Y-11665293D01*
X11603158Y-11665293D02*
X11622205Y-11655769D01*
X11622205Y-11655769D02*
X11631729Y-11646246D01*
X11631729Y-11646246D02*
X11641253Y-11627198D01*
X11822205Y-11541484D02*
X11726967Y-11541484D01*
X11726967Y-11541484D02*
X11717443Y-11636722D01*
X11717443Y-11636722D02*
X11726967Y-11627198D01*
X11726967Y-11627198D02*
X11746015Y-11617674D01*
X11746015Y-11617674D02*
X11793634Y-11617674D01*
X11793634Y-11617674D02*
X11812682Y-11627198D01*
X11812682Y-11627198D02*
X11822205Y-11636722D01*
X11822205Y-11636722D02*
X11831729Y-11655769D01*
X11831729Y-11655769D02*
X11831729Y-11703388D01*
X11831729Y-11703388D02*
X11822205Y-11722436D01*
X11822205Y-11722436D02*
X11812682Y-11731960D01*
X11812682Y-11731960D02*
X11793634Y-11741484D01*
X11793634Y-11741484D02*
X11746015Y-11741484D01*
X11746015Y-11741484D02*
X11726967Y-11731960D01*
X11726967Y-11731960D02*
X11717443Y-11722436D01*
X11955539Y-11541484D02*
X11974586Y-11541484D01*
X11974586Y-11541484D02*
X11993634Y-11551008D01*
X11993634Y-11551008D02*
X12003158Y-11560531D01*
X12003158Y-11560531D02*
X12012682Y-11579579D01*
X12012682Y-11579579D02*
X12022205Y-11617674D01*
X12022205Y-11617674D02*
X12022205Y-11665293D01*
X12022205Y-11665293D02*
X12012682Y-11703388D01*
X12012682Y-11703388D02*
X12003158Y-11722436D01*
X12003158Y-11722436D02*
X11993634Y-11731960D01*
X11993634Y-11731960D02*
X11974586Y-11741484D01*
X11974586Y-11741484D02*
X11955539Y-11741484D01*
X11955539Y-11741484D02*
X11936491Y-11731960D01*
X11936491Y-11731960D02*
X11926967Y-11722436D01*
X11926967Y-11722436D02*
X11917443Y-11703388D01*
X11917443Y-11703388D02*
X11907920Y-11665293D01*
X11907920Y-11665293D02*
X11907920Y-11617674D01*
X11907920Y-11617674D02*
X11917443Y-11579579D01*
X11917443Y-11579579D02*
X11926967Y-11560531D01*
X11926967Y-11560531D02*
X11936491Y-11551008D01*
X11936491Y-11551008D02*
X11955539Y-11541484D01*
X12107920Y-11741484D02*
X12107920Y-11608150D01*
X12107920Y-11627198D02*
X12117443Y-11617674D01*
X12117443Y-11617674D02*
X12136491Y-11608150D01*
X12136491Y-11608150D02*
X12165063Y-11608150D01*
X12165063Y-11608150D02*
X12184110Y-11617674D01*
X12184110Y-11617674D02*
X12193634Y-11636722D01*
X12193634Y-11636722D02*
X12193634Y-11741484D01*
X12193634Y-11636722D02*
X12203158Y-11617674D01*
X12203158Y-11617674D02*
X12222205Y-11608150D01*
X12222205Y-11608150D02*
X12250777Y-11608150D01*
X12250777Y-11608150D02*
X12269824Y-11617674D01*
X12269824Y-11617674D02*
X12279348Y-11636722D01*
X12279348Y-11636722D02*
X12279348Y-11741484D01*
X12374586Y-11741484D02*
X12374586Y-11608150D01*
X12374586Y-11627198D02*
X12384110Y-11617674D01*
X12384110Y-11617674D02*
X12403158Y-11608150D01*
X12403158Y-11608150D02*
X12431729Y-11608150D01*
X12431729Y-11608150D02*
X12450777Y-11617674D01*
X12450777Y-11617674D02*
X12460301Y-11636722D01*
X12460301Y-11636722D02*
X12460301Y-11741484D01*
X12460301Y-11636722D02*
X12469824Y-11617674D01*
X12469824Y-11617674D02*
X12488872Y-11608150D01*
X12488872Y-11608150D02*
X12517443Y-11608150D01*
X12517443Y-11608150D02*
X12536491Y-11617674D01*
X12536491Y-11617674D02*
X12546015Y-11636722D01*
X12546015Y-11636722D02*
X12546015Y-11741484D01*
X12936491Y-11531960D02*
X12765063Y-11789103D01*
X13193634Y-11541484D02*
X13212682Y-11541484D01*
X13212682Y-11541484D02*
X13231729Y-11551008D01*
X13231729Y-11551008D02*
X13241253Y-11560531D01*
X13241253Y-11560531D02*
X13250777Y-11579579D01*
X13250777Y-11579579D02*
X13260301Y-11617674D01*
X13260301Y-11617674D02*
X13260301Y-11665293D01*
X13260301Y-11665293D02*
X13250777Y-11703388D01*
X13250777Y-11703388D02*
X13241253Y-11722436D01*
X13241253Y-11722436D02*
X13231729Y-11731960D01*
X13231729Y-11731960D02*
X13212682Y-11741484D01*
X13212682Y-11741484D02*
X13193634Y-11741484D01*
X13193634Y-11741484D02*
X13174586Y-11731960D01*
X13174586Y-11731960D02*
X13165063Y-11722436D01*
X13165063Y-11722436D02*
X13155539Y-11703388D01*
X13155539Y-11703388D02*
X13146015Y-11665293D01*
X13146015Y-11665293D02*
X13146015Y-11617674D01*
X13146015Y-11617674D02*
X13155539Y-11579579D01*
X13155539Y-11579579D02*
X13165063Y-11560531D01*
X13165063Y-11560531D02*
X13174586Y-11551008D01*
X13174586Y-11551008D02*
X13193634Y-11541484D01*
X13346015Y-11722436D02*
X13355539Y-11731960D01*
X13355539Y-11731960D02*
X13346015Y-11741484D01*
X13346015Y-11741484D02*
X13336491Y-11731960D01*
X13336491Y-11731960D02*
X13346015Y-11722436D01*
X13346015Y-11722436D02*
X13346015Y-11741484D01*
X13479348Y-11541484D02*
X13498396Y-11541484D01*
X13498396Y-11541484D02*
X13517444Y-11551008D01*
X13517444Y-11551008D02*
X13526967Y-11560531D01*
X13526967Y-11560531D02*
X13536491Y-11579579D01*
X13536491Y-11579579D02*
X13546015Y-11617674D01*
X13546015Y-11617674D02*
X13546015Y-11665293D01*
X13546015Y-11665293D02*
X13536491Y-11703388D01*
X13536491Y-11703388D02*
X13526967Y-11722436D01*
X13526967Y-11722436D02*
X13517444Y-11731960D01*
X13517444Y-11731960D02*
X13498396Y-11741484D01*
X13498396Y-11741484D02*
X13479348Y-11741484D01*
X13479348Y-11741484D02*
X13460301Y-11731960D01*
X13460301Y-11731960D02*
X13450777Y-11722436D01*
X13450777Y-11722436D02*
X13441253Y-11703388D01*
X13441253Y-11703388D02*
X13431729Y-11665293D01*
X13431729Y-11665293D02*
X13431729Y-11617674D01*
X13431729Y-11617674D02*
X13441253Y-11579579D01*
X13441253Y-11579579D02*
X13450777Y-11560531D01*
X13450777Y-11560531D02*
X13460301Y-11551008D01*
X13460301Y-11551008D02*
X13479348Y-11541484D01*
X13612682Y-11541484D02*
X13736491Y-11541484D01*
X13736491Y-11541484D02*
X13669825Y-11617674D01*
X13669825Y-11617674D02*
X13698396Y-11617674D01*
X13698396Y-11617674D02*
X13717444Y-11627198D01*
X13717444Y-11627198D02*
X13726967Y-11636722D01*
X13726967Y-11636722D02*
X13736491Y-11655769D01*
X13736491Y-11655769D02*
X13736491Y-11703388D01*
X13736491Y-11703388D02*
X13726967Y-11722436D01*
X13726967Y-11722436D02*
X13717444Y-11731960D01*
X13717444Y-11731960D02*
X13698396Y-11741484D01*
X13698396Y-11741484D02*
X13641253Y-11741484D01*
X13641253Y-11741484D02*
X13622206Y-11731960D01*
X13622206Y-11731960D02*
X13612682Y-11722436D01*
X13803158Y-11541484D02*
X13936491Y-11541484D01*
X13936491Y-11541484D02*
X13850777Y-11741484D01*
X14098396Y-11608150D02*
X14098396Y-11741484D01*
X14050777Y-11531960D02*
X14003158Y-11674817D01*
X14003158Y-11674817D02*
X14126967Y-11674817D01*
X14193634Y-11541484D02*
X14193634Y-11579579D01*
X14269825Y-11541484D02*
X14269825Y-11579579D01*
X14565063Y-11817674D02*
X14555539Y-11808150D01*
X14555539Y-11808150D02*
X14536491Y-11779579D01*
X14536491Y-11779579D02*
X14526968Y-11760531D01*
X14526968Y-11760531D02*
X14517444Y-11731960D01*
X14517444Y-11731960D02*
X14507920Y-11684341D01*
X14507920Y-11684341D02*
X14507920Y-11646246D01*
X14507920Y-11646246D02*
X14517444Y-11598627D01*
X14517444Y-11598627D02*
X14526968Y-11570055D01*
X14526968Y-11570055D02*
X14536491Y-11551008D01*
X14536491Y-11551008D02*
X14555539Y-11522436D01*
X14555539Y-11522436D02*
X14565063Y-11512912D01*
X14669825Y-11627198D02*
X14650777Y-11617674D01*
X14650777Y-11617674D02*
X14641253Y-11608150D01*
X14641253Y-11608150D02*
X14631729Y-11589103D01*
X14631729Y-11589103D02*
X14631729Y-11579579D01*
X14631729Y-11579579D02*
X14641253Y-11560531D01*
X14641253Y-11560531D02*
X14650777Y-11551008D01*
X14650777Y-11551008D02*
X14669825Y-11541484D01*
X14669825Y-11541484D02*
X14707920Y-11541484D01*
X14707920Y-11541484D02*
X14726968Y-11551008D01*
X14726968Y-11551008D02*
X14736491Y-11560531D01*
X14736491Y-11560531D02*
X14746015Y-11579579D01*
X14746015Y-11579579D02*
X14746015Y-11589103D01*
X14746015Y-11589103D02*
X14736491Y-11608150D01*
X14736491Y-11608150D02*
X14726968Y-11617674D01*
X14726968Y-11617674D02*
X14707920Y-11627198D01*
X14707920Y-11627198D02*
X14669825Y-11627198D01*
X14669825Y-11627198D02*
X14650777Y-11636722D01*
X14650777Y-11636722D02*
X14641253Y-11646246D01*
X14641253Y-11646246D02*
X14631729Y-11665293D01*
X14631729Y-11665293D02*
X14631729Y-11703388D01*
X14631729Y-11703388D02*
X14641253Y-11722436D01*
X14641253Y-11722436D02*
X14650777Y-11731960D01*
X14650777Y-11731960D02*
X14669825Y-11741484D01*
X14669825Y-11741484D02*
X14707920Y-11741484D01*
X14707920Y-11741484D02*
X14726968Y-11731960D01*
X14726968Y-11731960D02*
X14736491Y-11722436D01*
X14736491Y-11722436D02*
X14746015Y-11703388D01*
X14746015Y-11703388D02*
X14746015Y-11665293D01*
X14746015Y-11665293D02*
X14736491Y-11646246D01*
X14736491Y-11646246D02*
X14726968Y-11636722D01*
X14726968Y-11636722D02*
X14707920Y-11627198D01*
X14984110Y-11741484D02*
X14984110Y-11541484D01*
X15069825Y-11741484D02*
X15069825Y-11636722D01*
X15069825Y-11636722D02*
X15060301Y-11617674D01*
X15060301Y-11617674D02*
X15041253Y-11608150D01*
X15041253Y-11608150D02*
X15012682Y-11608150D01*
X15012682Y-11608150D02*
X14993634Y-11617674D01*
X14993634Y-11617674D02*
X14984110Y-11627198D01*
X15193634Y-11741484D02*
X15174587Y-11731960D01*
X15174587Y-11731960D02*
X15165063Y-11722436D01*
X15165063Y-11722436D02*
X15155539Y-11703388D01*
X15155539Y-11703388D02*
X15155539Y-11646246D01*
X15155539Y-11646246D02*
X15165063Y-11627198D01*
X15165063Y-11627198D02*
X15174587Y-11617674D01*
X15174587Y-11617674D02*
X15193634Y-11608150D01*
X15193634Y-11608150D02*
X15222206Y-11608150D01*
X15222206Y-11608150D02*
X15241253Y-11617674D01*
X15241253Y-11617674D02*
X15250777Y-11627198D01*
X15250777Y-11627198D02*
X15260301Y-11646246D01*
X15260301Y-11646246D02*
X15260301Y-11703388D01*
X15260301Y-11703388D02*
X15250777Y-11722436D01*
X15250777Y-11722436D02*
X15241253Y-11731960D01*
X15241253Y-11731960D02*
X15222206Y-11741484D01*
X15222206Y-11741484D02*
X15193634Y-11741484D01*
X15374587Y-11741484D02*
X15355539Y-11731960D01*
X15355539Y-11731960D02*
X15346015Y-11712912D01*
X15346015Y-11712912D02*
X15346015Y-11541484D01*
X15526968Y-11731960D02*
X15507920Y-11741484D01*
X15507920Y-11741484D02*
X15469825Y-11741484D01*
X15469825Y-11741484D02*
X15450777Y-11731960D01*
X15450777Y-11731960D02*
X15441253Y-11712912D01*
X15441253Y-11712912D02*
X15441253Y-11636722D01*
X15441253Y-11636722D02*
X15450777Y-11617674D01*
X15450777Y-11617674D02*
X15469825Y-11608150D01*
X15469825Y-11608150D02*
X15507920Y-11608150D01*
X15507920Y-11608150D02*
X15526968Y-11617674D01*
X15526968Y-11617674D02*
X15536491Y-11636722D01*
X15536491Y-11636722D02*
X15536491Y-11655769D01*
X15536491Y-11655769D02*
X15441253Y-11674817D01*
X15612682Y-11731960D02*
X15631730Y-11741484D01*
X15631730Y-11741484D02*
X15669825Y-11741484D01*
X15669825Y-11741484D02*
X15688872Y-11731960D01*
X15688872Y-11731960D02*
X15698396Y-11712912D01*
X15698396Y-11712912D02*
X15698396Y-11703388D01*
X15698396Y-11703388D02*
X15688872Y-11684341D01*
X15688872Y-11684341D02*
X15669825Y-11674817D01*
X15669825Y-11674817D02*
X15641253Y-11674817D01*
X15641253Y-11674817D02*
X15622206Y-11665293D01*
X15622206Y-11665293D02*
X15612682Y-11646246D01*
X15612682Y-11646246D02*
X15612682Y-11636722D01*
X15612682Y-11636722D02*
X15622206Y-11617674D01*
X15622206Y-11617674D02*
X15641253Y-11608150D01*
X15641253Y-11608150D02*
X15669825Y-11608150D01*
X15669825Y-11608150D02*
X15688872Y-11617674D01*
X15765063Y-11817674D02*
X15774587Y-11808150D01*
X15774587Y-11808150D02*
X15793634Y-11779579D01*
X15793634Y-11779579D02*
X15803158Y-11760531D01*
X15803158Y-11760531D02*
X15812682Y-11731960D01*
X15812682Y-11731960D02*
X15822206Y-11684341D01*
X15822206Y-11684341D02*
X15822206Y-11646246D01*
X15822206Y-11646246D02*
X15812682Y-11598627D01*
X15812682Y-11598627D02*
X15803158Y-11570055D01*
X15803158Y-11570055D02*
X15793634Y-11551008D01*
X15793634Y-11551008D02*
X15774587Y-11522436D01*
X15774587Y-11522436D02*
X15765063Y-11512912D01*
X16126968Y-11817674D02*
X16117444Y-11808150D01*
X16117444Y-11808150D02*
X16098396Y-11779579D01*
X16098396Y-11779579D02*
X16088872Y-11760531D01*
X16088872Y-11760531D02*
X16079349Y-11731960D01*
X16079349Y-11731960D02*
X16069825Y-11684341D01*
X16069825Y-11684341D02*
X16069825Y-11646246D01*
X16069825Y-11646246D02*
X16079349Y-11598627D01*
X16079349Y-11598627D02*
X16088872Y-11570055D01*
X16088872Y-11570055D02*
X16098396Y-11551008D01*
X16098396Y-11551008D02*
X16117444Y-11522436D01*
X16117444Y-11522436D02*
X16126968Y-11512912D01*
X16203158Y-11608150D02*
X16203158Y-11741484D01*
X16203158Y-11627198D02*
X16212682Y-11617674D01*
X16212682Y-11617674D02*
X16231730Y-11608150D01*
X16231730Y-11608150D02*
X16260301Y-11608150D01*
X16260301Y-11608150D02*
X16279349Y-11617674D01*
X16279349Y-11617674D02*
X16288872Y-11636722D01*
X16288872Y-11636722D02*
X16288872Y-11741484D01*
X16412682Y-11741484D02*
X16393634Y-11731960D01*
X16393634Y-11731960D02*
X16384111Y-11722436D01*
X16384111Y-11722436D02*
X16374587Y-11703388D01*
X16374587Y-11703388D02*
X16374587Y-11646246D01*
X16374587Y-11646246D02*
X16384111Y-11627198D01*
X16384111Y-11627198D02*
X16393634Y-11617674D01*
X16393634Y-11617674D02*
X16412682Y-11608150D01*
X16412682Y-11608150D02*
X16441253Y-11608150D01*
X16441253Y-11608150D02*
X16460301Y-11617674D01*
X16460301Y-11617674D02*
X16469825Y-11627198D01*
X16469825Y-11627198D02*
X16479349Y-11646246D01*
X16479349Y-11646246D02*
X16479349Y-11703388D01*
X16479349Y-11703388D02*
X16469825Y-11722436D01*
X16469825Y-11722436D02*
X16460301Y-11731960D01*
X16460301Y-11731960D02*
X16441253Y-11741484D01*
X16441253Y-11741484D02*
X16412682Y-11741484D01*
X16536492Y-11608150D02*
X16612682Y-11608150D01*
X16565063Y-11541484D02*
X16565063Y-11712912D01*
X16565063Y-11712912D02*
X16574587Y-11731960D01*
X16574587Y-11731960D02*
X16593634Y-11741484D01*
X16593634Y-11741484D02*
X16612682Y-11741484D01*
X16831730Y-11608150D02*
X16831730Y-11808150D01*
X16831730Y-11617674D02*
X16850777Y-11608150D01*
X16850777Y-11608150D02*
X16888873Y-11608150D01*
X16888873Y-11608150D02*
X16907920Y-11617674D01*
X16907920Y-11617674D02*
X16917444Y-11627198D01*
X16917444Y-11627198D02*
X16926968Y-11646246D01*
X16926968Y-11646246D02*
X16926968Y-11703388D01*
X16926968Y-11703388D02*
X16917444Y-11722436D01*
X16917444Y-11722436D02*
X16907920Y-11731960D01*
X16907920Y-11731960D02*
X16888873Y-11741484D01*
X16888873Y-11741484D02*
X16850777Y-11741484D01*
X16850777Y-11741484D02*
X16831730Y-11731960D01*
X17041254Y-11741484D02*
X17022206Y-11731960D01*
X17022206Y-11731960D02*
X17012682Y-11712912D01*
X17012682Y-11712912D02*
X17012682Y-11541484D01*
X17203158Y-11741484D02*
X17203158Y-11636722D01*
X17203158Y-11636722D02*
X17193635Y-11617674D01*
X17193635Y-11617674D02*
X17174587Y-11608150D01*
X17174587Y-11608150D02*
X17136492Y-11608150D01*
X17136492Y-11608150D02*
X17117444Y-11617674D01*
X17203158Y-11731960D02*
X17184111Y-11741484D01*
X17184111Y-11741484D02*
X17136492Y-11741484D01*
X17136492Y-11741484D02*
X17117444Y-11731960D01*
X17117444Y-11731960D02*
X17107920Y-11712912D01*
X17107920Y-11712912D02*
X17107920Y-11693865D01*
X17107920Y-11693865D02*
X17117444Y-11674817D01*
X17117444Y-11674817D02*
X17136492Y-11665293D01*
X17136492Y-11665293D02*
X17184111Y-11665293D01*
X17184111Y-11665293D02*
X17203158Y-11655769D01*
X17269825Y-11608150D02*
X17346015Y-11608150D01*
X17298396Y-11541484D02*
X17298396Y-11712912D01*
X17298396Y-11712912D02*
X17307920Y-11731960D01*
X17307920Y-11731960D02*
X17326968Y-11741484D01*
X17326968Y-11741484D02*
X17346015Y-11741484D01*
X17488873Y-11731960D02*
X17469825Y-11741484D01*
X17469825Y-11741484D02*
X17431730Y-11741484D01*
X17431730Y-11741484D02*
X17412682Y-11731960D01*
X17412682Y-11731960D02*
X17403158Y-11712912D01*
X17403158Y-11712912D02*
X17403158Y-11636722D01*
X17403158Y-11636722D02*
X17412682Y-11617674D01*
X17412682Y-11617674D02*
X17431730Y-11608150D01*
X17431730Y-11608150D02*
X17469825Y-11608150D01*
X17469825Y-11608150D02*
X17488873Y-11617674D01*
X17488873Y-11617674D02*
X17498396Y-11636722D01*
X17498396Y-11636722D02*
X17498396Y-11655769D01*
X17498396Y-11655769D02*
X17403158Y-11674817D01*
X17669825Y-11741484D02*
X17669825Y-11541484D01*
X17669825Y-11731960D02*
X17650777Y-11741484D01*
X17650777Y-11741484D02*
X17612682Y-11741484D01*
X17612682Y-11741484D02*
X17593635Y-11731960D01*
X17593635Y-11731960D02*
X17584111Y-11722436D01*
X17584111Y-11722436D02*
X17574587Y-11703388D01*
X17574587Y-11703388D02*
X17574587Y-11646246D01*
X17574587Y-11646246D02*
X17584111Y-11627198D01*
X17584111Y-11627198D02*
X17593635Y-11617674D01*
X17593635Y-11617674D02*
X17612682Y-11608150D01*
X17612682Y-11608150D02*
X17650777Y-11608150D01*
X17650777Y-11608150D02*
X17669825Y-11617674D01*
X17746016Y-11817674D02*
X17755539Y-11808150D01*
X17755539Y-11808150D02*
X17774587Y-11779579D01*
X17774587Y-11779579D02*
X17784111Y-11760531D01*
X17784111Y-11760531D02*
X17793635Y-11731960D01*
X17793635Y-11731960D02*
X17803158Y-11684341D01*
X17803158Y-11684341D02*
X17803158Y-11646246D01*
X17803158Y-11646246D02*
X17793635Y-11598627D01*
X17793635Y-11598627D02*
X17784111Y-11570055D01*
X17784111Y-11570055D02*
X17774587Y-11551008D01*
X17774587Y-11551008D02*
X17755539Y-11522436D01*
X17755539Y-11522436D02*
X17746016Y-11512912D01*
D12*
X10990000Y-11914000D02*
G75*
G02*
X10863000Y-11914000I-63500J0D01*
G01*
X10863000Y-11914000D02*
G75*
G02*
X10990000Y-11914000I63500J0D01*
G01*
D10*
X11355539Y-12005484D02*
X11241253Y-12005484D01*
X11298396Y-12005484D02*
X11298396Y-11805484D01*
X11298396Y-11805484D02*
X11279348Y-11834055D01*
X11279348Y-11834055D02*
X11260301Y-11853103D01*
X11260301Y-11853103D02*
X11241253Y-11862627D01*
X11441253Y-11986436D02*
X11450777Y-11995960D01*
X11450777Y-11995960D02*
X11441253Y-12005484D01*
X11441253Y-12005484D02*
X11431729Y-11995960D01*
X11431729Y-11995960D02*
X11441253Y-11986436D01*
X11441253Y-11986436D02*
X11441253Y-12005484D01*
X11526967Y-11824531D02*
X11536491Y-11815008D01*
X11536491Y-11815008D02*
X11555539Y-11805484D01*
X11555539Y-11805484D02*
X11603158Y-11805484D01*
X11603158Y-11805484D02*
X11622205Y-11815008D01*
X11622205Y-11815008D02*
X11631729Y-11824531D01*
X11631729Y-11824531D02*
X11641253Y-11843579D01*
X11641253Y-11843579D02*
X11641253Y-11862627D01*
X11641253Y-11862627D02*
X11631729Y-11891198D01*
X11631729Y-11891198D02*
X11517443Y-12005484D01*
X11517443Y-12005484D02*
X11641253Y-12005484D01*
X11707920Y-11805484D02*
X11841253Y-11805484D01*
X11841253Y-11805484D02*
X11755539Y-12005484D01*
X11955539Y-11805484D02*
X11974586Y-11805484D01*
X11974586Y-11805484D02*
X11993634Y-11815008D01*
X11993634Y-11815008D02*
X12003158Y-11824531D01*
X12003158Y-11824531D02*
X12012682Y-11843579D01*
X12012682Y-11843579D02*
X12022205Y-11881674D01*
X12022205Y-11881674D02*
X12022205Y-11929293D01*
X12022205Y-11929293D02*
X12012682Y-11967388D01*
X12012682Y-11967388D02*
X12003158Y-11986436D01*
X12003158Y-11986436D02*
X11993634Y-11995960D01*
X11993634Y-11995960D02*
X11974586Y-12005484D01*
X11974586Y-12005484D02*
X11955539Y-12005484D01*
X11955539Y-12005484D02*
X11936491Y-11995960D01*
X11936491Y-11995960D02*
X11926967Y-11986436D01*
X11926967Y-11986436D02*
X11917443Y-11967388D01*
X11917443Y-11967388D02*
X11907920Y-11929293D01*
X11907920Y-11929293D02*
X11907920Y-11881674D01*
X11907920Y-11881674D02*
X11917443Y-11843579D01*
X11917443Y-11843579D02*
X11926967Y-11824531D01*
X11926967Y-11824531D02*
X11936491Y-11815008D01*
X11936491Y-11815008D02*
X11955539Y-11805484D01*
X12107920Y-12005484D02*
X12107920Y-11872150D01*
X12107920Y-11891198D02*
X12117443Y-11881674D01*
X12117443Y-11881674D02*
X12136491Y-11872150D01*
X12136491Y-11872150D02*
X12165063Y-11872150D01*
X12165063Y-11872150D02*
X12184110Y-11881674D01*
X12184110Y-11881674D02*
X12193634Y-11900722D01*
X12193634Y-11900722D02*
X12193634Y-12005484D01*
X12193634Y-11900722D02*
X12203158Y-11881674D01*
X12203158Y-11881674D02*
X12222205Y-11872150D01*
X12222205Y-11872150D02*
X12250777Y-11872150D01*
X12250777Y-11872150D02*
X12269824Y-11881674D01*
X12269824Y-11881674D02*
X12279348Y-11900722D01*
X12279348Y-11900722D02*
X12279348Y-12005484D01*
X12374586Y-12005484D02*
X12374586Y-11872150D01*
X12374586Y-11891198D02*
X12384110Y-11881674D01*
X12384110Y-11881674D02*
X12403158Y-11872150D01*
X12403158Y-11872150D02*
X12431729Y-11872150D01*
X12431729Y-11872150D02*
X12450777Y-11881674D01*
X12450777Y-11881674D02*
X12460301Y-11900722D01*
X12460301Y-11900722D02*
X12460301Y-12005484D01*
X12460301Y-11900722D02*
X12469824Y-11881674D01*
X12469824Y-11881674D02*
X12488872Y-11872150D01*
X12488872Y-11872150D02*
X12517443Y-11872150D01*
X12517443Y-11872150D02*
X12536491Y-11881674D01*
X12536491Y-11881674D02*
X12546015Y-11900722D01*
X12546015Y-11900722D02*
X12546015Y-12005484D01*
X12936491Y-11795960D02*
X12765063Y-12053103D01*
X13193634Y-11805484D02*
X13212682Y-11805484D01*
X13212682Y-11805484D02*
X13231729Y-11815008D01*
X13231729Y-11815008D02*
X13241253Y-11824531D01*
X13241253Y-11824531D02*
X13250777Y-11843579D01*
X13250777Y-11843579D02*
X13260301Y-11881674D01*
X13260301Y-11881674D02*
X13260301Y-11929293D01*
X13260301Y-11929293D02*
X13250777Y-11967388D01*
X13250777Y-11967388D02*
X13241253Y-11986436D01*
X13241253Y-11986436D02*
X13231729Y-11995960D01*
X13231729Y-11995960D02*
X13212682Y-12005484D01*
X13212682Y-12005484D02*
X13193634Y-12005484D01*
X13193634Y-12005484D02*
X13174586Y-11995960D01*
X13174586Y-11995960D02*
X13165063Y-11986436D01*
X13165063Y-11986436D02*
X13155539Y-11967388D01*
X13155539Y-11967388D02*
X13146015Y-11929293D01*
X13146015Y-11929293D02*
X13146015Y-11881674D01*
X13146015Y-11881674D02*
X13155539Y-11843579D01*
X13155539Y-11843579D02*
X13165063Y-11824531D01*
X13165063Y-11824531D02*
X13174586Y-11815008D01*
X13174586Y-11815008D02*
X13193634Y-11805484D01*
X13346015Y-11986436D02*
X13355539Y-11995960D01*
X13355539Y-11995960D02*
X13346015Y-12005484D01*
X13346015Y-12005484D02*
X13336491Y-11995960D01*
X13336491Y-11995960D02*
X13346015Y-11986436D01*
X13346015Y-11986436D02*
X13346015Y-12005484D01*
X13479348Y-11805484D02*
X13498396Y-11805484D01*
X13498396Y-11805484D02*
X13517444Y-11815008D01*
X13517444Y-11815008D02*
X13526967Y-11824531D01*
X13526967Y-11824531D02*
X13536491Y-11843579D01*
X13536491Y-11843579D02*
X13546015Y-11881674D01*
X13546015Y-11881674D02*
X13546015Y-11929293D01*
X13546015Y-11929293D02*
X13536491Y-11967388D01*
X13536491Y-11967388D02*
X13526967Y-11986436D01*
X13526967Y-11986436D02*
X13517444Y-11995960D01*
X13517444Y-11995960D02*
X13498396Y-12005484D01*
X13498396Y-12005484D02*
X13479348Y-12005484D01*
X13479348Y-12005484D02*
X13460301Y-11995960D01*
X13460301Y-11995960D02*
X13450777Y-11986436D01*
X13450777Y-11986436D02*
X13441253Y-11967388D01*
X13441253Y-11967388D02*
X13431729Y-11929293D01*
X13431729Y-11929293D02*
X13431729Y-11881674D01*
X13431729Y-11881674D02*
X13441253Y-11843579D01*
X13441253Y-11843579D02*
X13450777Y-11824531D01*
X13450777Y-11824531D02*
X13460301Y-11815008D01*
X13460301Y-11815008D02*
X13479348Y-11805484D01*
X13726967Y-11805484D02*
X13631729Y-11805484D01*
X13631729Y-11805484D02*
X13622206Y-11900722D01*
X13622206Y-11900722D02*
X13631729Y-11891198D01*
X13631729Y-11891198D02*
X13650777Y-11881674D01*
X13650777Y-11881674D02*
X13698396Y-11881674D01*
X13698396Y-11881674D02*
X13717444Y-11891198D01*
X13717444Y-11891198D02*
X13726967Y-11900722D01*
X13726967Y-11900722D02*
X13736491Y-11919769D01*
X13736491Y-11919769D02*
X13736491Y-11967388D01*
X13736491Y-11967388D02*
X13726967Y-11986436D01*
X13726967Y-11986436D02*
X13717444Y-11995960D01*
X13717444Y-11995960D02*
X13698396Y-12005484D01*
X13698396Y-12005484D02*
X13650777Y-12005484D01*
X13650777Y-12005484D02*
X13631729Y-11995960D01*
X13631729Y-11995960D02*
X13622206Y-11986436D01*
X13860301Y-11805484D02*
X13879348Y-11805484D01*
X13879348Y-11805484D02*
X13898396Y-11815008D01*
X13898396Y-11815008D02*
X13907920Y-11824531D01*
X13907920Y-11824531D02*
X13917444Y-11843579D01*
X13917444Y-11843579D02*
X13926967Y-11881674D01*
X13926967Y-11881674D02*
X13926967Y-11929293D01*
X13926967Y-11929293D02*
X13917444Y-11967388D01*
X13917444Y-11967388D02*
X13907920Y-11986436D01*
X13907920Y-11986436D02*
X13898396Y-11995960D01*
X13898396Y-11995960D02*
X13879348Y-12005484D01*
X13879348Y-12005484D02*
X13860301Y-12005484D01*
X13860301Y-12005484D02*
X13841253Y-11995960D01*
X13841253Y-11995960D02*
X13831729Y-11986436D01*
X13831729Y-11986436D02*
X13822206Y-11967388D01*
X13822206Y-11967388D02*
X13812682Y-11929293D01*
X13812682Y-11929293D02*
X13812682Y-11881674D01*
X13812682Y-11881674D02*
X13822206Y-11843579D01*
X13822206Y-11843579D02*
X13831729Y-11824531D01*
X13831729Y-11824531D02*
X13841253Y-11815008D01*
X13841253Y-11815008D02*
X13860301Y-11805484D01*
X14050777Y-11805484D02*
X14069825Y-11805484D01*
X14069825Y-11805484D02*
X14088872Y-11815008D01*
X14088872Y-11815008D02*
X14098396Y-11824531D01*
X14098396Y-11824531D02*
X14107920Y-11843579D01*
X14107920Y-11843579D02*
X14117444Y-11881674D01*
X14117444Y-11881674D02*
X14117444Y-11929293D01*
X14117444Y-11929293D02*
X14107920Y-11967388D01*
X14107920Y-11967388D02*
X14098396Y-11986436D01*
X14098396Y-11986436D02*
X14088872Y-11995960D01*
X14088872Y-11995960D02*
X14069825Y-12005484D01*
X14069825Y-12005484D02*
X14050777Y-12005484D01*
X14050777Y-12005484D02*
X14031729Y-11995960D01*
X14031729Y-11995960D02*
X14022206Y-11986436D01*
X14022206Y-11986436D02*
X14012682Y-11967388D01*
X14012682Y-11967388D02*
X14003158Y-11929293D01*
X14003158Y-11929293D02*
X14003158Y-11881674D01*
X14003158Y-11881674D02*
X14012682Y-11843579D01*
X14012682Y-11843579D02*
X14022206Y-11824531D01*
X14022206Y-11824531D02*
X14031729Y-11815008D01*
X14031729Y-11815008D02*
X14050777Y-11805484D01*
X14193634Y-11805484D02*
X14193634Y-11843579D01*
X14269825Y-11805484D02*
X14269825Y-11843579D01*
X14565063Y-12081674D02*
X14555539Y-12072150D01*
X14555539Y-12072150D02*
X14536491Y-12043579D01*
X14536491Y-12043579D02*
X14526968Y-12024531D01*
X14526968Y-12024531D02*
X14517444Y-11995960D01*
X14517444Y-11995960D02*
X14507920Y-11948341D01*
X14507920Y-11948341D02*
X14507920Y-11910246D01*
X14507920Y-11910246D02*
X14517444Y-11862627D01*
X14517444Y-11862627D02*
X14526968Y-11834055D01*
X14526968Y-11834055D02*
X14536491Y-11815008D01*
X14536491Y-11815008D02*
X14555539Y-11786436D01*
X14555539Y-11786436D02*
X14565063Y-11776912D01*
X14631729Y-11824531D02*
X14641253Y-11815008D01*
X14641253Y-11815008D02*
X14660301Y-11805484D01*
X14660301Y-11805484D02*
X14707920Y-11805484D01*
X14707920Y-11805484D02*
X14726968Y-11815008D01*
X14726968Y-11815008D02*
X14736491Y-11824531D01*
X14736491Y-11824531D02*
X14746015Y-11843579D01*
X14746015Y-11843579D02*
X14746015Y-11862627D01*
X14746015Y-11862627D02*
X14736491Y-11891198D01*
X14736491Y-11891198D02*
X14622206Y-12005484D01*
X14622206Y-12005484D02*
X14746015Y-12005484D01*
X14984110Y-12005484D02*
X14984110Y-11805484D01*
X15069825Y-12005484D02*
X15069825Y-11900722D01*
X15069825Y-11900722D02*
X15060301Y-11881674D01*
X15060301Y-11881674D02*
X15041253Y-11872150D01*
X15041253Y-11872150D02*
X15012682Y-11872150D01*
X15012682Y-11872150D02*
X14993634Y-11881674D01*
X14993634Y-11881674D02*
X14984110Y-11891198D01*
X15193634Y-12005484D02*
X15174587Y-11995960D01*
X15174587Y-11995960D02*
X15165063Y-11986436D01*
X15165063Y-11986436D02*
X15155539Y-11967388D01*
X15155539Y-11967388D02*
X15155539Y-11910246D01*
X15155539Y-11910246D02*
X15165063Y-11891198D01*
X15165063Y-11891198D02*
X15174587Y-11881674D01*
X15174587Y-11881674D02*
X15193634Y-11872150D01*
X15193634Y-11872150D02*
X15222206Y-11872150D01*
X15222206Y-11872150D02*
X15241253Y-11881674D01*
X15241253Y-11881674D02*
X15250777Y-11891198D01*
X15250777Y-11891198D02*
X15260301Y-11910246D01*
X15260301Y-11910246D02*
X15260301Y-11967388D01*
X15260301Y-11967388D02*
X15250777Y-11986436D01*
X15250777Y-11986436D02*
X15241253Y-11995960D01*
X15241253Y-11995960D02*
X15222206Y-12005484D01*
X15222206Y-12005484D02*
X15193634Y-12005484D01*
X15374587Y-12005484D02*
X15355539Y-11995960D01*
X15355539Y-11995960D02*
X15346015Y-11976912D01*
X15346015Y-11976912D02*
X15346015Y-11805484D01*
X15526968Y-11995960D02*
X15507920Y-12005484D01*
X15507920Y-12005484D02*
X15469825Y-12005484D01*
X15469825Y-12005484D02*
X15450777Y-11995960D01*
X15450777Y-11995960D02*
X15441253Y-11976912D01*
X15441253Y-11976912D02*
X15441253Y-11900722D01*
X15441253Y-11900722D02*
X15450777Y-11881674D01*
X15450777Y-11881674D02*
X15469825Y-11872150D01*
X15469825Y-11872150D02*
X15507920Y-11872150D01*
X15507920Y-11872150D02*
X15526968Y-11881674D01*
X15526968Y-11881674D02*
X15536491Y-11900722D01*
X15536491Y-11900722D02*
X15536491Y-11919769D01*
X15536491Y-11919769D02*
X15441253Y-11938817D01*
X15612682Y-11995960D02*
X15631730Y-12005484D01*
X15631730Y-12005484D02*
X15669825Y-12005484D01*
X15669825Y-12005484D02*
X15688872Y-11995960D01*
X15688872Y-11995960D02*
X15698396Y-11976912D01*
X15698396Y-11976912D02*
X15698396Y-11967388D01*
X15698396Y-11967388D02*
X15688872Y-11948341D01*
X15688872Y-11948341D02*
X15669825Y-11938817D01*
X15669825Y-11938817D02*
X15641253Y-11938817D01*
X15641253Y-11938817D02*
X15622206Y-11929293D01*
X15622206Y-11929293D02*
X15612682Y-11910246D01*
X15612682Y-11910246D02*
X15612682Y-11900722D01*
X15612682Y-11900722D02*
X15622206Y-11881674D01*
X15622206Y-11881674D02*
X15641253Y-11872150D01*
X15641253Y-11872150D02*
X15669825Y-11872150D01*
X15669825Y-11872150D02*
X15688872Y-11881674D01*
X15765063Y-12081674D02*
X15774587Y-12072150D01*
X15774587Y-12072150D02*
X15793634Y-12043579D01*
X15793634Y-12043579D02*
X15803158Y-12024531D01*
X15803158Y-12024531D02*
X15812682Y-11995960D01*
X15812682Y-11995960D02*
X15822206Y-11948341D01*
X15822206Y-11948341D02*
X15822206Y-11910246D01*
X15822206Y-11910246D02*
X15812682Y-11862627D01*
X15812682Y-11862627D02*
X15803158Y-11834055D01*
X15803158Y-11834055D02*
X15793634Y-11815008D01*
X15793634Y-11815008D02*
X15774587Y-11786436D01*
X15774587Y-11786436D02*
X15765063Y-11776912D01*
X16126968Y-12081674D02*
X16117444Y-12072150D01*
X16117444Y-12072150D02*
X16098396Y-12043579D01*
X16098396Y-12043579D02*
X16088872Y-12024531D01*
X16088872Y-12024531D02*
X16079349Y-11995960D01*
X16079349Y-11995960D02*
X16069825Y-11948341D01*
X16069825Y-11948341D02*
X16069825Y-11910246D01*
X16069825Y-11910246D02*
X16079349Y-11862627D01*
X16079349Y-11862627D02*
X16088872Y-11834055D01*
X16088872Y-11834055D02*
X16098396Y-11815008D01*
X16098396Y-11815008D02*
X16117444Y-11786436D01*
X16117444Y-11786436D02*
X16126968Y-11776912D01*
X16203158Y-11872150D02*
X16203158Y-12005484D01*
X16203158Y-11891198D02*
X16212682Y-11881674D01*
X16212682Y-11881674D02*
X16231730Y-11872150D01*
X16231730Y-11872150D02*
X16260301Y-11872150D01*
X16260301Y-11872150D02*
X16279349Y-11881674D01*
X16279349Y-11881674D02*
X16288872Y-11900722D01*
X16288872Y-11900722D02*
X16288872Y-12005484D01*
X16412682Y-12005484D02*
X16393634Y-11995960D01*
X16393634Y-11995960D02*
X16384111Y-11986436D01*
X16384111Y-11986436D02*
X16374587Y-11967388D01*
X16374587Y-11967388D02*
X16374587Y-11910246D01*
X16374587Y-11910246D02*
X16384111Y-11891198D01*
X16384111Y-11891198D02*
X16393634Y-11881674D01*
X16393634Y-11881674D02*
X16412682Y-11872150D01*
X16412682Y-11872150D02*
X16441253Y-11872150D01*
X16441253Y-11872150D02*
X16460301Y-11881674D01*
X16460301Y-11881674D02*
X16469825Y-11891198D01*
X16469825Y-11891198D02*
X16479349Y-11910246D01*
X16479349Y-11910246D02*
X16479349Y-11967388D01*
X16479349Y-11967388D02*
X16469825Y-11986436D01*
X16469825Y-11986436D02*
X16460301Y-11995960D01*
X16460301Y-11995960D02*
X16441253Y-12005484D01*
X16441253Y-12005484D02*
X16412682Y-12005484D01*
X16536492Y-11872150D02*
X16612682Y-11872150D01*
X16565063Y-11805484D02*
X16565063Y-11976912D01*
X16565063Y-11976912D02*
X16574587Y-11995960D01*
X16574587Y-11995960D02*
X16593634Y-12005484D01*
X16593634Y-12005484D02*
X16612682Y-12005484D01*
X16831730Y-11872150D02*
X16831730Y-12072150D01*
X16831730Y-11881674D02*
X16850777Y-11872150D01*
X16850777Y-11872150D02*
X16888873Y-11872150D01*
X16888873Y-11872150D02*
X16907920Y-11881674D01*
X16907920Y-11881674D02*
X16917444Y-11891198D01*
X16917444Y-11891198D02*
X16926968Y-11910246D01*
X16926968Y-11910246D02*
X16926968Y-11967388D01*
X16926968Y-11967388D02*
X16917444Y-11986436D01*
X16917444Y-11986436D02*
X16907920Y-11995960D01*
X16907920Y-11995960D02*
X16888873Y-12005484D01*
X16888873Y-12005484D02*
X16850777Y-12005484D01*
X16850777Y-12005484D02*
X16831730Y-11995960D01*
X17041254Y-12005484D02*
X17022206Y-11995960D01*
X17022206Y-11995960D02*
X17012682Y-11976912D01*
X17012682Y-11976912D02*
X17012682Y-11805484D01*
X17203158Y-12005484D02*
X17203158Y-11900722D01*
X17203158Y-11900722D02*
X17193635Y-11881674D01*
X17193635Y-11881674D02*
X17174587Y-11872150D01*
X17174587Y-11872150D02*
X17136492Y-11872150D01*
X17136492Y-11872150D02*
X17117444Y-11881674D01*
X17203158Y-11995960D02*
X17184111Y-12005484D01*
X17184111Y-12005484D02*
X17136492Y-12005484D01*
X17136492Y-12005484D02*
X17117444Y-11995960D01*
X17117444Y-11995960D02*
X17107920Y-11976912D01*
X17107920Y-11976912D02*
X17107920Y-11957865D01*
X17107920Y-11957865D02*
X17117444Y-11938817D01*
X17117444Y-11938817D02*
X17136492Y-11929293D01*
X17136492Y-11929293D02*
X17184111Y-11929293D01*
X17184111Y-11929293D02*
X17203158Y-11919769D01*
X17269825Y-11872150D02*
X17346015Y-11872150D01*
X17298396Y-11805484D02*
X17298396Y-11976912D01*
X17298396Y-11976912D02*
X17307920Y-11995960D01*
X17307920Y-11995960D02*
X17326968Y-12005484D01*
X17326968Y-12005484D02*
X17346015Y-12005484D01*
X17488873Y-11995960D02*
X17469825Y-12005484D01*
X17469825Y-12005484D02*
X17431730Y-12005484D01*
X17431730Y-12005484D02*
X17412682Y-11995960D01*
X17412682Y-11995960D02*
X17403158Y-11976912D01*
X17403158Y-11976912D02*
X17403158Y-11900722D01*
X17403158Y-11900722D02*
X17412682Y-11881674D01*
X17412682Y-11881674D02*
X17431730Y-11872150D01*
X17431730Y-11872150D02*
X17469825Y-11872150D01*
X17469825Y-11872150D02*
X17488873Y-11881674D01*
X17488873Y-11881674D02*
X17498396Y-11900722D01*
X17498396Y-11900722D02*
X17498396Y-11919769D01*
X17498396Y-11919769D02*
X17403158Y-11938817D01*
X17669825Y-12005484D02*
X17669825Y-11805484D01*
X17669825Y-11995960D02*
X17650777Y-12005484D01*
X17650777Y-12005484D02*
X17612682Y-12005484D01*
X17612682Y-12005484D02*
X17593635Y-11995960D01*
X17593635Y-11995960D02*
X17584111Y-11986436D01*
X17584111Y-11986436D02*
X17574587Y-11967388D01*
X17574587Y-11967388D02*
X17574587Y-11910246D01*
X17574587Y-11910246D02*
X17584111Y-11891198D01*
X17584111Y-11891198D02*
X17593635Y-11881674D01*
X17593635Y-11881674D02*
X17612682Y-11872150D01*
X17612682Y-11872150D02*
X17650777Y-11872150D01*
X17650777Y-11872150D02*
X17669825Y-11881674D01*
X17746016Y-12081674D02*
X17755539Y-12072150D01*
X17755539Y-12072150D02*
X17774587Y-12043579D01*
X17774587Y-12043579D02*
X17784111Y-12024531D01*
X17784111Y-12024531D02*
X17793635Y-11995960D01*
X17793635Y-11995960D02*
X17803158Y-11948341D01*
X17803158Y-11948341D02*
X17803158Y-11910246D01*
X17803158Y-11910246D02*
X17793635Y-11862627D01*
X17793635Y-11862627D02*
X17784111Y-11834055D01*
X17784111Y-11834055D02*
X17774587Y-11815008D01*
X17774587Y-11815008D02*
X17755539Y-11786436D01*
X17755539Y-11786436D02*
X17746016Y-11776912D01*
X10890000Y-12078000D02*
X10890000Y-12278000D01*
X10790000Y-12178000D02*
X10990000Y-12178000D01*
X11241253Y-12088531D02*
X11250777Y-12079008D01*
X11250777Y-12079008D02*
X11269824Y-12069484D01*
X11269824Y-12069484D02*
X11317443Y-12069484D01*
X11317443Y-12069484D02*
X11336491Y-12079008D01*
X11336491Y-12079008D02*
X11346015Y-12088531D01*
X11346015Y-12088531D02*
X11355539Y-12107579D01*
X11355539Y-12107579D02*
X11355539Y-12126627D01*
X11355539Y-12126627D02*
X11346015Y-12155198D01*
X11346015Y-12155198D02*
X11231729Y-12269484D01*
X11231729Y-12269484D02*
X11355539Y-12269484D01*
X11441253Y-12250436D02*
X11450777Y-12259960D01*
X11450777Y-12259960D02*
X11441253Y-12269484D01*
X11441253Y-12269484D02*
X11431729Y-12259960D01*
X11431729Y-12259960D02*
X11441253Y-12250436D01*
X11441253Y-12250436D02*
X11441253Y-12269484D01*
X11517443Y-12069484D02*
X11650777Y-12069484D01*
X11650777Y-12069484D02*
X11565062Y-12269484D01*
X11765062Y-12069484D02*
X11784110Y-12069484D01*
X11784110Y-12069484D02*
X11803158Y-12079008D01*
X11803158Y-12079008D02*
X11812682Y-12088531D01*
X11812682Y-12088531D02*
X11822205Y-12107579D01*
X11822205Y-12107579D02*
X11831729Y-12145674D01*
X11831729Y-12145674D02*
X11831729Y-12193293D01*
X11831729Y-12193293D02*
X11822205Y-12231388D01*
X11822205Y-12231388D02*
X11812682Y-12250436D01*
X11812682Y-12250436D02*
X11803158Y-12259960D01*
X11803158Y-12259960D02*
X11784110Y-12269484D01*
X11784110Y-12269484D02*
X11765062Y-12269484D01*
X11765062Y-12269484D02*
X11746015Y-12259960D01*
X11746015Y-12259960D02*
X11736491Y-12250436D01*
X11736491Y-12250436D02*
X11726967Y-12231388D01*
X11726967Y-12231388D02*
X11717443Y-12193293D01*
X11717443Y-12193293D02*
X11717443Y-12145674D01*
X11717443Y-12145674D02*
X11726967Y-12107579D01*
X11726967Y-12107579D02*
X11736491Y-12088531D01*
X11736491Y-12088531D02*
X11746015Y-12079008D01*
X11746015Y-12079008D02*
X11765062Y-12069484D01*
X11955539Y-12069484D02*
X11974586Y-12069484D01*
X11974586Y-12069484D02*
X11993634Y-12079008D01*
X11993634Y-12079008D02*
X12003158Y-12088531D01*
X12003158Y-12088531D02*
X12012682Y-12107579D01*
X12012682Y-12107579D02*
X12022205Y-12145674D01*
X12022205Y-12145674D02*
X12022205Y-12193293D01*
X12022205Y-12193293D02*
X12012682Y-12231388D01*
X12012682Y-12231388D02*
X12003158Y-12250436D01*
X12003158Y-12250436D02*
X11993634Y-12259960D01*
X11993634Y-12259960D02*
X11974586Y-12269484D01*
X11974586Y-12269484D02*
X11955539Y-12269484D01*
X11955539Y-12269484D02*
X11936491Y-12259960D01*
X11936491Y-12259960D02*
X11926967Y-12250436D01*
X11926967Y-12250436D02*
X11917443Y-12231388D01*
X11917443Y-12231388D02*
X11907920Y-12193293D01*
X11907920Y-12193293D02*
X11907920Y-12145674D01*
X11907920Y-12145674D02*
X11917443Y-12107579D01*
X11917443Y-12107579D02*
X11926967Y-12088531D01*
X11926967Y-12088531D02*
X11936491Y-12079008D01*
X11936491Y-12079008D02*
X11955539Y-12069484D01*
X12107920Y-12269484D02*
X12107920Y-12136150D01*
X12107920Y-12155198D02*
X12117443Y-12145674D01*
X12117443Y-12145674D02*
X12136491Y-12136150D01*
X12136491Y-12136150D02*
X12165063Y-12136150D01*
X12165063Y-12136150D02*
X12184110Y-12145674D01*
X12184110Y-12145674D02*
X12193634Y-12164722D01*
X12193634Y-12164722D02*
X12193634Y-12269484D01*
X12193634Y-12164722D02*
X12203158Y-12145674D01*
X12203158Y-12145674D02*
X12222205Y-12136150D01*
X12222205Y-12136150D02*
X12250777Y-12136150D01*
X12250777Y-12136150D02*
X12269824Y-12145674D01*
X12269824Y-12145674D02*
X12279348Y-12164722D01*
X12279348Y-12164722D02*
X12279348Y-12269484D01*
X12374586Y-12269484D02*
X12374586Y-12136150D01*
X12374586Y-12155198D02*
X12384110Y-12145674D01*
X12384110Y-12145674D02*
X12403158Y-12136150D01*
X12403158Y-12136150D02*
X12431729Y-12136150D01*
X12431729Y-12136150D02*
X12450777Y-12145674D01*
X12450777Y-12145674D02*
X12460301Y-12164722D01*
X12460301Y-12164722D02*
X12460301Y-12269484D01*
X12460301Y-12164722D02*
X12469824Y-12145674D01*
X12469824Y-12145674D02*
X12488872Y-12136150D01*
X12488872Y-12136150D02*
X12517443Y-12136150D01*
X12517443Y-12136150D02*
X12536491Y-12145674D01*
X12536491Y-12145674D02*
X12546015Y-12164722D01*
X12546015Y-12164722D02*
X12546015Y-12269484D01*
X12936491Y-12059960D02*
X12765063Y-12317103D01*
X13193634Y-12069484D02*
X13212682Y-12069484D01*
X13212682Y-12069484D02*
X13231729Y-12079008D01*
X13231729Y-12079008D02*
X13241253Y-12088531D01*
X13241253Y-12088531D02*
X13250777Y-12107579D01*
X13250777Y-12107579D02*
X13260301Y-12145674D01*
X13260301Y-12145674D02*
X13260301Y-12193293D01*
X13260301Y-12193293D02*
X13250777Y-12231388D01*
X13250777Y-12231388D02*
X13241253Y-12250436D01*
X13241253Y-12250436D02*
X13231729Y-12259960D01*
X13231729Y-12259960D02*
X13212682Y-12269484D01*
X13212682Y-12269484D02*
X13193634Y-12269484D01*
X13193634Y-12269484D02*
X13174586Y-12259960D01*
X13174586Y-12259960D02*
X13165063Y-12250436D01*
X13165063Y-12250436D02*
X13155539Y-12231388D01*
X13155539Y-12231388D02*
X13146015Y-12193293D01*
X13146015Y-12193293D02*
X13146015Y-12145674D01*
X13146015Y-12145674D02*
X13155539Y-12107579D01*
X13155539Y-12107579D02*
X13165063Y-12088531D01*
X13165063Y-12088531D02*
X13174586Y-12079008D01*
X13174586Y-12079008D02*
X13193634Y-12069484D01*
X13346015Y-12250436D02*
X13355539Y-12259960D01*
X13355539Y-12259960D02*
X13346015Y-12269484D01*
X13346015Y-12269484D02*
X13336491Y-12259960D01*
X13336491Y-12259960D02*
X13346015Y-12250436D01*
X13346015Y-12250436D02*
X13346015Y-12269484D01*
X13546015Y-12269484D02*
X13431729Y-12269484D01*
X13488872Y-12269484D02*
X13488872Y-12069484D01*
X13488872Y-12069484D02*
X13469825Y-12098055D01*
X13469825Y-12098055D02*
X13450777Y-12117103D01*
X13450777Y-12117103D02*
X13431729Y-12126627D01*
X13669825Y-12069484D02*
X13688872Y-12069484D01*
X13688872Y-12069484D02*
X13707920Y-12079008D01*
X13707920Y-12079008D02*
X13717444Y-12088531D01*
X13717444Y-12088531D02*
X13726967Y-12107579D01*
X13726967Y-12107579D02*
X13736491Y-12145674D01*
X13736491Y-12145674D02*
X13736491Y-12193293D01*
X13736491Y-12193293D02*
X13726967Y-12231388D01*
X13726967Y-12231388D02*
X13717444Y-12250436D01*
X13717444Y-12250436D02*
X13707920Y-12259960D01*
X13707920Y-12259960D02*
X13688872Y-12269484D01*
X13688872Y-12269484D02*
X13669825Y-12269484D01*
X13669825Y-12269484D02*
X13650777Y-12259960D01*
X13650777Y-12259960D02*
X13641253Y-12250436D01*
X13641253Y-12250436D02*
X13631729Y-12231388D01*
X13631729Y-12231388D02*
X13622206Y-12193293D01*
X13622206Y-12193293D02*
X13622206Y-12145674D01*
X13622206Y-12145674D02*
X13631729Y-12107579D01*
X13631729Y-12107579D02*
X13641253Y-12088531D01*
X13641253Y-12088531D02*
X13650777Y-12079008D01*
X13650777Y-12079008D02*
X13669825Y-12069484D01*
X13907920Y-12069484D02*
X13869825Y-12069484D01*
X13869825Y-12069484D02*
X13850777Y-12079008D01*
X13850777Y-12079008D02*
X13841253Y-12088531D01*
X13841253Y-12088531D02*
X13822206Y-12117103D01*
X13822206Y-12117103D02*
X13812682Y-12155198D01*
X13812682Y-12155198D02*
X13812682Y-12231388D01*
X13812682Y-12231388D02*
X13822206Y-12250436D01*
X13822206Y-12250436D02*
X13831729Y-12259960D01*
X13831729Y-12259960D02*
X13850777Y-12269484D01*
X13850777Y-12269484D02*
X13888872Y-12269484D01*
X13888872Y-12269484D02*
X13907920Y-12259960D01*
X13907920Y-12259960D02*
X13917444Y-12250436D01*
X13917444Y-12250436D02*
X13926967Y-12231388D01*
X13926967Y-12231388D02*
X13926967Y-12183769D01*
X13926967Y-12183769D02*
X13917444Y-12164722D01*
X13917444Y-12164722D02*
X13907920Y-12155198D01*
X13907920Y-12155198D02*
X13888872Y-12145674D01*
X13888872Y-12145674D02*
X13850777Y-12145674D01*
X13850777Y-12145674D02*
X13831729Y-12155198D01*
X13831729Y-12155198D02*
X13822206Y-12164722D01*
X13822206Y-12164722D02*
X13812682Y-12183769D01*
X13993634Y-12069484D02*
X14117444Y-12069484D01*
X14117444Y-12069484D02*
X14050777Y-12145674D01*
X14050777Y-12145674D02*
X14079348Y-12145674D01*
X14079348Y-12145674D02*
X14098396Y-12155198D01*
X14098396Y-12155198D02*
X14107920Y-12164722D01*
X14107920Y-12164722D02*
X14117444Y-12183769D01*
X14117444Y-12183769D02*
X14117444Y-12231388D01*
X14117444Y-12231388D02*
X14107920Y-12250436D01*
X14107920Y-12250436D02*
X14098396Y-12259960D01*
X14098396Y-12259960D02*
X14079348Y-12269484D01*
X14079348Y-12269484D02*
X14022206Y-12269484D01*
X14022206Y-12269484D02*
X14003158Y-12259960D01*
X14003158Y-12259960D02*
X13993634Y-12250436D01*
X14193634Y-12069484D02*
X14193634Y-12107579D01*
X14269825Y-12069484D02*
X14269825Y-12107579D01*
X14565063Y-12345674D02*
X14555539Y-12336150D01*
X14555539Y-12336150D02*
X14536491Y-12307579D01*
X14536491Y-12307579D02*
X14526968Y-12288531D01*
X14526968Y-12288531D02*
X14517444Y-12259960D01*
X14517444Y-12259960D02*
X14507920Y-12212341D01*
X14507920Y-12212341D02*
X14507920Y-12174246D01*
X14507920Y-12174246D02*
X14517444Y-12126627D01*
X14517444Y-12126627D02*
X14526968Y-12098055D01*
X14526968Y-12098055D02*
X14536491Y-12079008D01*
X14536491Y-12079008D02*
X14555539Y-12050436D01*
X14555539Y-12050436D02*
X14565063Y-12040912D01*
X14631729Y-12088531D02*
X14641253Y-12079008D01*
X14641253Y-12079008D02*
X14660301Y-12069484D01*
X14660301Y-12069484D02*
X14707920Y-12069484D01*
X14707920Y-12069484D02*
X14726968Y-12079008D01*
X14726968Y-12079008D02*
X14736491Y-12088531D01*
X14736491Y-12088531D02*
X14746015Y-12107579D01*
X14746015Y-12107579D02*
X14746015Y-12126627D01*
X14746015Y-12126627D02*
X14736491Y-12155198D01*
X14736491Y-12155198D02*
X14622206Y-12269484D01*
X14622206Y-12269484D02*
X14746015Y-12269484D01*
X14984110Y-12269484D02*
X14984110Y-12069484D01*
X15069825Y-12269484D02*
X15069825Y-12164722D01*
X15069825Y-12164722D02*
X15060301Y-12145674D01*
X15060301Y-12145674D02*
X15041253Y-12136150D01*
X15041253Y-12136150D02*
X15012682Y-12136150D01*
X15012682Y-12136150D02*
X14993634Y-12145674D01*
X14993634Y-12145674D02*
X14984110Y-12155198D01*
X15193634Y-12269484D02*
X15174587Y-12259960D01*
X15174587Y-12259960D02*
X15165063Y-12250436D01*
X15165063Y-12250436D02*
X15155539Y-12231388D01*
X15155539Y-12231388D02*
X15155539Y-12174246D01*
X15155539Y-12174246D02*
X15165063Y-12155198D01*
X15165063Y-12155198D02*
X15174587Y-12145674D01*
X15174587Y-12145674D02*
X15193634Y-12136150D01*
X15193634Y-12136150D02*
X15222206Y-12136150D01*
X15222206Y-12136150D02*
X15241253Y-12145674D01*
X15241253Y-12145674D02*
X15250777Y-12155198D01*
X15250777Y-12155198D02*
X15260301Y-12174246D01*
X15260301Y-12174246D02*
X15260301Y-12231388D01*
X15260301Y-12231388D02*
X15250777Y-12250436D01*
X15250777Y-12250436D02*
X15241253Y-12259960D01*
X15241253Y-12259960D02*
X15222206Y-12269484D01*
X15222206Y-12269484D02*
X15193634Y-12269484D01*
X15374587Y-12269484D02*
X15355539Y-12259960D01*
X15355539Y-12259960D02*
X15346015Y-12240912D01*
X15346015Y-12240912D02*
X15346015Y-12069484D01*
X15526968Y-12259960D02*
X15507920Y-12269484D01*
X15507920Y-12269484D02*
X15469825Y-12269484D01*
X15469825Y-12269484D02*
X15450777Y-12259960D01*
X15450777Y-12259960D02*
X15441253Y-12240912D01*
X15441253Y-12240912D02*
X15441253Y-12164722D01*
X15441253Y-12164722D02*
X15450777Y-12145674D01*
X15450777Y-12145674D02*
X15469825Y-12136150D01*
X15469825Y-12136150D02*
X15507920Y-12136150D01*
X15507920Y-12136150D02*
X15526968Y-12145674D01*
X15526968Y-12145674D02*
X15536491Y-12164722D01*
X15536491Y-12164722D02*
X15536491Y-12183769D01*
X15536491Y-12183769D02*
X15441253Y-12202817D01*
X15612682Y-12259960D02*
X15631730Y-12269484D01*
X15631730Y-12269484D02*
X15669825Y-12269484D01*
X15669825Y-12269484D02*
X15688872Y-12259960D01*
X15688872Y-12259960D02*
X15698396Y-12240912D01*
X15698396Y-12240912D02*
X15698396Y-12231388D01*
X15698396Y-12231388D02*
X15688872Y-12212341D01*
X15688872Y-12212341D02*
X15669825Y-12202817D01*
X15669825Y-12202817D02*
X15641253Y-12202817D01*
X15641253Y-12202817D02*
X15622206Y-12193293D01*
X15622206Y-12193293D02*
X15612682Y-12174246D01*
X15612682Y-12174246D02*
X15612682Y-12164722D01*
X15612682Y-12164722D02*
X15622206Y-12145674D01*
X15622206Y-12145674D02*
X15641253Y-12136150D01*
X15641253Y-12136150D02*
X15669825Y-12136150D01*
X15669825Y-12136150D02*
X15688872Y-12145674D01*
X15765063Y-12345674D02*
X15774587Y-12336150D01*
X15774587Y-12336150D02*
X15793634Y-12307579D01*
X15793634Y-12307579D02*
X15803158Y-12288531D01*
X15803158Y-12288531D02*
X15812682Y-12259960D01*
X15812682Y-12259960D02*
X15822206Y-12212341D01*
X15822206Y-12212341D02*
X15822206Y-12174246D01*
X15822206Y-12174246D02*
X15812682Y-12126627D01*
X15812682Y-12126627D02*
X15803158Y-12098055D01*
X15803158Y-12098055D02*
X15793634Y-12079008D01*
X15793634Y-12079008D02*
X15774587Y-12050436D01*
X15774587Y-12050436D02*
X15765063Y-12040912D01*
X16126968Y-12345674D02*
X16117444Y-12336150D01*
X16117444Y-12336150D02*
X16098396Y-12307579D01*
X16098396Y-12307579D02*
X16088872Y-12288531D01*
X16088872Y-12288531D02*
X16079349Y-12259960D01*
X16079349Y-12259960D02*
X16069825Y-12212341D01*
X16069825Y-12212341D02*
X16069825Y-12174246D01*
X16069825Y-12174246D02*
X16079349Y-12126627D01*
X16079349Y-12126627D02*
X16088872Y-12098055D01*
X16088872Y-12098055D02*
X16098396Y-12079008D01*
X16098396Y-12079008D02*
X16117444Y-12050436D01*
X16117444Y-12050436D02*
X16126968Y-12040912D01*
X16203158Y-12136150D02*
X16203158Y-12269484D01*
X16203158Y-12155198D02*
X16212682Y-12145674D01*
X16212682Y-12145674D02*
X16231730Y-12136150D01*
X16231730Y-12136150D02*
X16260301Y-12136150D01*
X16260301Y-12136150D02*
X16279349Y-12145674D01*
X16279349Y-12145674D02*
X16288872Y-12164722D01*
X16288872Y-12164722D02*
X16288872Y-12269484D01*
X16412682Y-12269484D02*
X16393634Y-12259960D01*
X16393634Y-12259960D02*
X16384111Y-12250436D01*
X16384111Y-12250436D02*
X16374587Y-12231388D01*
X16374587Y-12231388D02*
X16374587Y-12174246D01*
X16374587Y-12174246D02*
X16384111Y-12155198D01*
X16384111Y-12155198D02*
X16393634Y-12145674D01*
X16393634Y-12145674D02*
X16412682Y-12136150D01*
X16412682Y-12136150D02*
X16441253Y-12136150D01*
X16441253Y-12136150D02*
X16460301Y-12145674D01*
X16460301Y-12145674D02*
X16469825Y-12155198D01*
X16469825Y-12155198D02*
X16479349Y-12174246D01*
X16479349Y-12174246D02*
X16479349Y-12231388D01*
X16479349Y-12231388D02*
X16469825Y-12250436D01*
X16469825Y-12250436D02*
X16460301Y-12259960D01*
X16460301Y-12259960D02*
X16441253Y-12269484D01*
X16441253Y-12269484D02*
X16412682Y-12269484D01*
X16536492Y-12136150D02*
X16612682Y-12136150D01*
X16565063Y-12069484D02*
X16565063Y-12240912D01*
X16565063Y-12240912D02*
X16574587Y-12259960D01*
X16574587Y-12259960D02*
X16593634Y-12269484D01*
X16593634Y-12269484D02*
X16612682Y-12269484D01*
X16831730Y-12136150D02*
X16831730Y-12336150D01*
X16831730Y-12145674D02*
X16850777Y-12136150D01*
X16850777Y-12136150D02*
X16888873Y-12136150D01*
X16888873Y-12136150D02*
X16907920Y-12145674D01*
X16907920Y-12145674D02*
X16917444Y-12155198D01*
X16917444Y-12155198D02*
X16926968Y-12174246D01*
X16926968Y-12174246D02*
X16926968Y-12231388D01*
X16926968Y-12231388D02*
X16917444Y-12250436D01*
X16917444Y-12250436D02*
X16907920Y-12259960D01*
X16907920Y-12259960D02*
X16888873Y-12269484D01*
X16888873Y-12269484D02*
X16850777Y-12269484D01*
X16850777Y-12269484D02*
X16831730Y-12259960D01*
X17041254Y-12269484D02*
X17022206Y-12259960D01*
X17022206Y-12259960D02*
X17012682Y-12240912D01*
X17012682Y-12240912D02*
X17012682Y-12069484D01*
X17203158Y-12269484D02*
X17203158Y-12164722D01*
X17203158Y-12164722D02*
X17193635Y-12145674D01*
X17193635Y-12145674D02*
X17174587Y-12136150D01*
X17174587Y-12136150D02*
X17136492Y-12136150D01*
X17136492Y-12136150D02*
X17117444Y-12145674D01*
X17203158Y-12259960D02*
X17184111Y-12269484D01*
X17184111Y-12269484D02*
X17136492Y-12269484D01*
X17136492Y-12269484D02*
X17117444Y-12259960D01*
X17117444Y-12259960D02*
X17107920Y-12240912D01*
X17107920Y-12240912D02*
X17107920Y-12221865D01*
X17107920Y-12221865D02*
X17117444Y-12202817D01*
X17117444Y-12202817D02*
X17136492Y-12193293D01*
X17136492Y-12193293D02*
X17184111Y-12193293D01*
X17184111Y-12193293D02*
X17203158Y-12183769D01*
X17269825Y-12136150D02*
X17346015Y-12136150D01*
X17298396Y-12069484D02*
X17298396Y-12240912D01*
X17298396Y-12240912D02*
X17307920Y-12259960D01*
X17307920Y-12259960D02*
X17326968Y-12269484D01*
X17326968Y-12269484D02*
X17346015Y-12269484D01*
X17488873Y-12259960D02*
X17469825Y-12269484D01*
X17469825Y-12269484D02*
X17431730Y-12269484D01*
X17431730Y-12269484D02*
X17412682Y-12259960D01*
X17412682Y-12259960D02*
X17403158Y-12240912D01*
X17403158Y-12240912D02*
X17403158Y-12164722D01*
X17403158Y-12164722D02*
X17412682Y-12145674D01*
X17412682Y-12145674D02*
X17431730Y-12136150D01*
X17431730Y-12136150D02*
X17469825Y-12136150D01*
X17469825Y-12136150D02*
X17488873Y-12145674D01*
X17488873Y-12145674D02*
X17498396Y-12164722D01*
X17498396Y-12164722D02*
X17498396Y-12183769D01*
X17498396Y-12183769D02*
X17403158Y-12202817D01*
X17669825Y-12269484D02*
X17669825Y-12069484D01*
X17669825Y-12259960D02*
X17650777Y-12269484D01*
X17650777Y-12269484D02*
X17612682Y-12269484D01*
X17612682Y-12269484D02*
X17593635Y-12259960D01*
X17593635Y-12259960D02*
X17584111Y-12250436D01*
X17584111Y-12250436D02*
X17574587Y-12231388D01*
X17574587Y-12231388D02*
X17574587Y-12174246D01*
X17574587Y-12174246D02*
X17584111Y-12155198D01*
X17584111Y-12155198D02*
X17593635Y-12145674D01*
X17593635Y-12145674D02*
X17612682Y-12136150D01*
X17612682Y-12136150D02*
X17650777Y-12136150D01*
X17650777Y-12136150D02*
X17669825Y-12145674D01*
X17746016Y-12345674D02*
X17755539Y-12336150D01*
X17755539Y-12336150D02*
X17774587Y-12307579D01*
X17774587Y-12307579D02*
X17784111Y-12288531D01*
X17784111Y-12288531D02*
X17793635Y-12259960D01*
X17793635Y-12259960D02*
X17803158Y-12212341D01*
X17803158Y-12212341D02*
X17803158Y-12174246D01*
X17803158Y-12174246D02*
X17793635Y-12126627D01*
X17793635Y-12126627D02*
X17784111Y-12098055D01*
X17784111Y-12098055D02*
X17774587Y-12079008D01*
X17774587Y-12079008D02*
X17755539Y-12050436D01*
X17755539Y-12050436D02*
X17746016Y-12040912D01*
M02*
